<?xml version="1.0" standalone="no"?>
<!DOCTYPE svg PUBLIC "-//W3C//DTD SVG 1.1//EN" "http://www.w3.org/Graphics/SVG/1.1/DTD/svg11.dtd" >
<svg xmlns="http://www.w3.org/2000/svg">
<metadata>Generated by IcoMoon</metadata>
<defs>
<font id="lato-semibold-webfont" horiz-adv-x="1024">
<font-face units-per-em="1024" ascent="960" descent="-64" />
<missing-glyph horiz-adv-x="1024" />
<glyph unicode="&#x20;" horiz-adv-x="256" d="" />
<glyph unicode="&#x21;" glyph-name="uni21" horiz-adv-x="282" d="M193.536 872.96v-292.864q0-46.080-4.096-90.368t-10.752-95.488h-74.24q-7.168 51.2-11.008 95.488t-3.84 90.368v292.864h103.936zM68.608 199.168q0 14.848 5.376 27.904t15.104 22.784 22.528 15.36 28.16 5.632q14.848 0 27.904-5.632t22.528-15.36 15.104-22.784 5.632-27.904q0-15.36-5.632-28.16t-15.104-22.528-22.528-15.104-27.904-5.376q-15.36 0-28.16 5.376t-22.528 15.104-15.104 22.528-5.376 28.16z" />
<glyph unicode="&#x22;" glyph-name="uni22" horiz-adv-x="393" d="M154.112 872.96v-147.456l-9.728-79.872q-3.072-19.456-11.264-30.464t-27.136-11.008q-16.384 0-25.088 11.008t-12.288 30.464l-9.728 79.872v147.456h95.232zM333.824 872.96v-147.456l-9.728-79.872q-3.072-19.456-11.264-30.464t-27.136-11.008q-16.384 0-25.088 11.008t-12.288 30.464l-9.728 79.872v147.456h95.232z" />
<glyph unicode="&#x23;" glyph-name="uni23" horiz-adv-x="594" d="M415.232 347.648l-40.96-211.968h-50.176q-7.68 0-14.592 3.584t-11.52 9.984-6.4 14.848 0.256 18.176l32.768 165.376h-115.2l-32.256-171.008q-4.096-22.016-18.176-31.488t-32-9.472h-48.64l40.96 211.968h-66.048q-16.896 0-24.576 10.496t-4.096 35.072l5.632 35.328h100.864l29.184 152.576h-113.664l8.192 46.080q3.072 17.92 14.080 26.112t34.56 8.192h68.096l34.304 173.056q3.584 17.92 16.64 28.16t30.976 10.24h49.664l-40.96-211.456h115.2l40.96 211.456h48.64q17.92 0 27.904-11.264t6.912-28.16l-34.304-172.032h105.984l-8.192-46.080q-3.072-17.92-14.080-26.112t-34.56-8.192h-60.416l-29.184-152.576h81.408q16.896 0 24.576-10.24t3.584-35.328l-5.12-35.328h-116.224zM221.184 428.544h115.2l29.696 152.576h-115.2z" />
<glyph unicode="&#x24;" glyph-name="uni24" horiz-adv-x="594" d="M243.2 130.048q-60.416 7.168-112.384 32t-88.832 62.208l33.28 50.688q4.608 6.656 12.032 11.008t16.128 4.352q10.24 0 22.784-8.704t29.696-20.224 40.192-22.528 54.272-16.128l18.944 248.32q-36.352 10.752-71.424 24.32t-62.72 36.096-44.8 56.32-17.152 84.992q0 38.4 15.104 74.496t44.032 64.768 71.168 46.848 97.024 20.736l5.632 68.608q0.512 11.264 8.704 19.968t20.992 8.704h40.96l-7.68-100.352q53.76-8.192 93.184-29.952t68.608-49.92l-26.624-40.96q-11.264-17.92-27.648-17.92-7.68 0-18.176 5.632t-24.576 13.056-32 15.104-39.936 11.776l-17.92-227.84q36.864-11.264 72.96-24.832t64.768-34.816 46.592-52.992 17.92-79.36q0-46.592-15.616-87.808t-45.824-72.704-73.984-51.2-99.584-23.296l-6.144-81.92q-0.512-10.752-8.704-19.712t-20.992-8.96h-40.96zM442.368 346.112q0 22.016-8.192 38.4t-22.272 28.672-33.536 21.248-41.984 16.64l-17.92-229.376q60.928 7.168 92.416 39.68t31.488 84.736zM176.64 683.52q0-21.504 7.68-37.888t21.248-29.184 32-22.272 39.936-17.152l15.872 208.384q-30.72-3.072-52.736-12.544t-36.352-23.040-20.992-30.464-6.656-35.84z" />
<glyph unicode="&#x25;" glyph-name="uni25" horiz-adv-x="830" d="M375.808 694.784q0-42.496-13.568-76.288t-36.608-57.6-53.248-36.352-63.488-12.544q-35.84 0-66.304 12.544t-52.736 36.352-35.072 57.6-12.8 76.288q0 43.52 12.8 78.080t35.072 58.368 52.736 36.608 66.304 12.8 66.304-12.8 52.736-36.608 35.072-58.368 12.8-78.080zM290.816 694.784q0 31.232-6.4 52.992t-17.408 35.328-26.112 19.456-32 5.888q-17.408 0-32.256-5.888t-25.6-19.456-16.896-35.328-6.144-52.992q0-30.72 6.144-51.712t16.896-34.048 25.6-18.688 32.256-5.632q16.896 0 32 5.632t26.112 18.688 17.408 34.048 6.4 51.712zM628.736 855.040q5.632 7.168 13.568 12.544t22.272 5.376h79.36l-543.232-720.384q-5.632-7.168-13.824-12.032t-19.968-4.864h-81.92zM788.48 309.248q0-42.496-13.824-76.288t-36.864-57.344-53.248-36.096-63.488-12.544q-35.84 0-66.304 12.544t-52.736 36.096-34.816 57.344-12.544 76.288q0 43.52 12.544 78.080t34.816 58.624 52.736 36.608 66.304 12.544 66.56-12.544 52.992-36.608 35.072-58.624 12.8-78.080zM703.488 309.248q0 31.232-6.4 52.992t-17.664 35.328-26.368 19.456-32 5.888-31.744-5.888-25.856-19.456-17.152-35.328-6.144-52.992q0-30.72 6.144-51.712t17.152-34.048 25.856-18.688 31.744-5.632 32 5.632 26.368 18.688 17.664 34.048 6.4 51.712z" />
<glyph unicode="&#x26;" glyph-name="uni26" horiz-adv-x="735" d="M343.040 881.152q43.008 0 77.568-13.312t59.392-35.84 38.912-51.712 16.64-60.416l-69.632-14.336q-9.216-2.048-17.152 2.56t-12.032 15.36q-4.096 13.312-11.776 26.368t-18.944 23.296-26.88 16.64-36.096 6.4q-23.552 0-42.24-7.68t-31.744-21.248-19.968-31.488-6.912-38.4q0-16.384 3.584-31.744t11.776-30.72 20.736-31.488 30.464-34.56l203.264-209.408q17.92 33.28 28.928 70.144t14.592 74.24q1.024 10.752 7.168 17.152t16.384 6.4h68.096q-0.512-64-19.2-123.136t-52.992-109.824l154.624-158.72h-107.008q-8.704 0-15.616 1.024t-12.8 3.328-11.264 6.4-11.52 10.752l-61.44 62.464q-48.64-43.008-110.336-67.584t-133.888-24.576q-41.984 0-82.176 14.336t-71.936 41.216-51.2 65.536-19.456 87.296q0 34.816 11.52 66.304t32.256 58.368 48.896 48.384 61.952 36.864q-29.184 38.4-42.496 75.52t-13.312 75.008 13.824 71.68 40.192 58.88 64 39.68 85.248 14.592zM284.672 216.576q50.688 0 92.16 17.152t73.728 46.336l-205.312 208.896q-47.104-27.648-69.632-64.512t-22.528-79.872q0-30.208 11.008-54.016t29.184-40.192 41.984-25.088 49.408-8.704z" />
<glyph unicode="&#x27;" glyph-name="uni27" horiz-adv-x="213" d="M154.112 872.96v-147.456l-9.728-79.872q-3.072-19.456-11.264-30.464t-27.136-11.008q-16.384 0-25.088 11.008t-12.288 30.464l-9.728 79.872v147.456h95.232z" />
<glyph unicode="&#x28;" glyph-name="uni28" horiz-adv-x="278" d="M136.704 457.216q0-107.52 26.624-210.176t77.312-193.28q4.608-9.216 5.632-16.384t-1.024-12.544-5.888-8.96-8.448-6.656l-48.64-30.208q-38.4 58.88-65.024 116.992t-43.52 117.248-24.576 119.808-7.68 124.16q0 62.976 7.68 123.648t24.576 119.808 43.52 117.504 65.024 117.248l48.64-30.208q4.608-3.072 8.448-6.656t5.888-8.96 1.024-12.544-5.632-16.384q-50.688-91.136-77.312-193.536t-26.624-209.92z" />
<glyph unicode="&#x29;" glyph-name="uni29" horiz-adv-x="278" d="M140.288 457.216q0 107.52-26.624 209.92t-76.8 193.536q-4.608 9.216-5.632 16.384t0.768 12.544 5.632 8.96 8.448 6.656l49.152 30.208q37.888-58.88 64.512-117.248t43.52-117.504 24.576-119.808 7.68-123.648q0-63.488-7.68-124.16t-24.576-119.808-43.52-117.248-64.512-116.992l-49.152 30.208q-4.608 3.072-8.448 6.656t-5.632 8.96-0.768 12.544 5.632 16.384q50.176 90.624 76.8 193.28t26.624 210.176z" />
<glyph unicode="&#x2a;" glyph-name="uni2A" horiz-adv-x="435" d="M190.976 569.856v96.768q0 10.24 1.28 19.456t4.864 17.92q-10.752-12.8-28.672-23.552l-84.48-48.64-26.112 45.568 83.968 48.64q18.432 11.264 35.84 13.312-9.216 1.024-18.176 4.864t-17.664 9.472l-84.48 49.152 26.112 45.568 84.992-49.152q8.704-5.632 16.128-11.52t13.056-13.056q-4.096 8.704-5.376 17.92t-1.28 19.456v97.28h53.248v-96.768q0-20.48-6.144-37.376 5.632 7.168 12.8 12.8t15.872 11.264l84.48 48.64 26.112-45.568-83.968-48.64q-8.704-5.632-17.408-9.216t-17.408-5.12q16.384-2.048 34.816-13.312l84.48-49.152-26.112-45.568-84.992 49.152q-8.704 5.12-16.128 11.008t-13.056 13.056q6.656-16.384 6.656-36.864v-97.792h-53.248z" />
<glyph unicode="&#x2b;" glyph-name="uni2B" horiz-adv-x="594" d="M341.504 734.72v-214.016h203.264v-82.944h-203.264v-214.528h-89.6v214.528h-202.24v82.944h202.24v214.016h89.6z" />
<glyph unicode="&#x2c;" glyph-name="uni2C" horiz-adv-x="236" d="M49.152 206.848q0 13.312 4.864 25.088t13.824 20.48 21.504 13.568 27.392 4.864q17.408 0 30.72-6.4t22.272-17.408 13.312-25.6 4.352-30.976q0-23.552-6.912-49.664t-20.48-51.968-33.28-50.432-44.8-45.056l-18.944 17.408q-4.096 4.096-5.888 7.68t-1.792 9.216q0 8.704 8.704 16.384 5.12 6.144 13.056 15.104t16.128 20.992 15.36 26.112 10.24 29.952h-2.56q-14.848 0-27.136 5.376t-21.248 14.848-13.824 22.272-4.864 28.16z" />
<glyph unicode="&#x2d;" glyph-name="uni2D" horiz-adv-x="381" d="M60.928 490.496h259.584v-93.184h-259.584v93.184z" />
<glyph unicode="&#x2e;" glyph-name="uni2E" horiz-adv-x="242" d="M50.176 199.168q0 14.848 5.376 27.904t14.848 22.784 22.528 15.36 27.904 5.632 27.904-5.632 22.784-15.36 15.36-22.784 5.632-27.904q0-15.36-5.632-28.16t-15.36-22.528-22.784-15.104-27.904-5.376-27.904 5.376-22.528 15.104-14.848 22.528-5.376 28.16z" />
<glyph unicode="&#x2f;" glyph-name="uni2F" horiz-adv-x="471" d="M137.216 130.048q-7.68-20.992-24.576-31.488t-34.304-10.496h-46.592l303.104 765.952q7.168 18.944 22.272 29.184t34.56 10.24h46.592z" />
<glyph unicode="&#x30;" glyph-name="uni30" horiz-adv-x="594" d="M565.76 504.32q0-96.768-20.736-167.424t-57.088-117.248-85.504-69.12-105.984-22.528-105.984 22.528-85.248 69.12-56.576 117.248-20.48 167.424 20.48 167.68 56.576 117.248 85.248 69.12 105.984 22.784 105.984-22.784 85.504-69.12 57.088-117.248 20.736-167.68zM452.096 504.32q0 81.92-13.056 136.448t-34.56 87.296-49.664 46.592-58.368 13.824q-30.72 0-58.624-13.824t-49.408-46.592-34.304-87.296-12.8-136.448 12.8-136.448 34.304-87.296 49.408-46.592 58.624-13.824q30.208 0 58.368 13.824t49.664 46.592 34.56 87.296 13.056 136.448z" />
<glyph unicode="&#x31;" glyph-name="uni31" horiz-adv-x="594" d="M123.904 219.136h153.6v461.824q0 24.064 1.536 50.176l-118.272-99.84q-7.68-6.144-15.616-7.936t-14.848-0.256-12.288 4.864-8.448 7.424l-34.304 48.128 222.208 190.976h89.6v-655.36h138.752v-83.456h-401.92v83.456z" />
<glyph unicode="&#x32;" glyph-name="uni32" horiz-adv-x="594" d="M303.616 881.152q49.152 0 90.368-14.592t71.168-41.472 46.848-65.28 16.896-86.528q0-40.96-12.032-75.776t-32.512-66.56-47.872-61.696-57.6-60.672l-178.176-182.272q22.016 5.632 44.288 9.472t42.24 3.84h216.576q17.92 0 28.16-10.496t10.24-26.88v-66.56h-498.688v37.376q0 11.264 4.608 23.552t14.848 22.528l229.376 229.888q29.184 29.184 51.968 55.808t38.912 53.248 24.576 54.016 8.448 57.6q0 29.184-8.96 51.456t-24.576 36.864-37.376 22.016-47.872 7.424q-25.088 0-46.336-7.168t-37.888-19.968-27.648-30.464-16.128-38.656q-7.68-20.992-19.712-28.16t-35.072-3.072l-57.856 10.24q7.68 52.224 28.928 91.648t53.504 65.792 73.984 39.936 90.368 13.568z" />
<glyph unicode="&#x33;" glyph-name="uni33" horiz-adv-x="594" d="M307.2 881.152q49.152 0 89.344-14.080t69.12-39.168 44.544-59.904 15.616-76.288q0-70.144-32.512-109.824t-89.344-57.6q137.728-40.448 137.728-173.056 0-53.248-19.968-94.72t-54.016-70.144-79.36-43.776-96-15.104q-56.832 0-98.304 13.568t-71.424 38.912-49.92 61.184-33.792 80.384l47.616 19.968q18.944 8.192 36.096 4.608t24.832-18.944q8.192-16.384 18.432-35.072t26.368-34.304 39.936-26.112 58.624-10.496q35.328 0 61.696 11.52t44.032 29.696 26.368 40.704 8.704 44.544q0 27.648-6.656 50.944t-25.856 39.68-54.272 25.856-91.904 9.472v79.36q46.592 0.512 78.592 9.472t51.2 24.576 27.648 37.632 8.448 48.128q0 28.16-8.704 49.664t-24.32 36.096-37.12 21.76-47.616 7.168q-25.088 0-46.336-7.168t-37.888-19.968-27.904-30.464-16.384-38.656q-7.168-20.992-19.2-28.16t-35.072-3.072l-57.856 10.24q7.68 52.224 28.928 91.648t53.504 65.792 73.984 39.936 90.368 13.568z" />
<glyph unicode="&#x34;" glyph-name="uni34" horiz-adv-x="594" d="M464.896 408.064h101.888v-63.488q0-9.216-5.888-15.872t-17.664-6.656h-78.336v-186.368h-95.744v186.368h-318.976q-11.776 0-20.224 6.912t-11.008 17.152l-11.264 56.32 353.792 471.040h103.424v-465.408zM369.152 677.376q0 15.36 1.024 33.28t3.584 37.376l-247.808-339.968h243.2v269.312z" />
<glyph unicode="&#x35;" glyph-name="uni35" horiz-adv-x="594" d="M507.392 825.344q0-23.552-14.848-38.4t-49.664-14.848h-216.064l-29.696-171.52q52.736 10.752 97.792 10.752 57.856 0 102.144-17.152t74.24-47.36 45.056-70.912 15.104-88.32q0-58.88-20.48-107.008t-56.832-82.176-85.76-52.48-106.752-18.432q-33.792 0-64.256 6.656t-57.088 18.176-49.152 26.624-40.448 31.488l33.792 47.104q10.752 15.36 28.672 15.36 11.264 0 24.576-8.192t30.976-17.664 41.728-17.664 57.344-8.192q36.352 0 65.024 11.776t48.384 33.024 29.952 50.944 10.24 65.024q0 32.256-9.472 57.856t-28.16 43.52-46.848 27.392-65.024 9.472q-27.136 0-55.552-4.608t-57.6-14.336l-68.608 19.456 60.416 352.256h356.864v-47.616z" />
<glyph unicode="&#x36;" glyph-name="uni36" horiz-adv-x="594" d="M255.488 601.6q-8.192-10.24-15.616-19.712t-14.592-18.688q23.552 13.824 51.456 21.504t60.672 7.68q43.008 0 82.432-14.080t69.376-41.984 47.872-69.12 17.92-94.976q0-51.2-18.688-95.744t-52.48-77.568-81.152-52.224-104.704-19.2-103.424 18.432-78.592 51.968-49.92 80.64-17.408 104.96q0 50.176 21.504 104.96t66.56 115.2l181.248 243.2q8.192 10.752 23.808 18.432t35.072 7.68h97.28zM154.624 365.568q0-32.768 9.216-59.904t27.136-46.336 44.288-29.952 60.672-10.752q33.28 0 60.928 11.008t47.36 30.464 30.464 46.080 10.752 57.856q0 33.792-10.496 60.672t-29.696 45.312-46.080 28.416-59.136 9.984q-33.28 0-60.16-11.264t-45.824-30.72-29.184-45.568-10.24-55.296z" />
<glyph unicode="&#x37;" glyph-name="uni37" horiz-adv-x="594" d="M556.544 872.96v-48.64q0-21.504-4.608-34.816t-9.216-22.528l-291.328-592.896q-7.68-16.384-21.76-27.392t-37.12-11.008h-79.36l296.96 583.168q8.192 15.872 16.384 28.672t18.432 24.576h-368.128q-10.24 0-17.92 7.936t-7.68 18.176v74.752h505.344z" />
<glyph unicode="&#x38;" glyph-name="uni38" horiz-adv-x="594" d="M296.96 127.488q-56.32 0-102.656 15.104t-79.616 42.752-51.712 67.072-18.432 88.064q0 67.584 34.048 113.152t102.144 66.56q-55.296 22.016-83.2 64t-27.904 100.864q0 41.472 16.384 77.312t46.336 62.208 71.936 41.472 92.672 15.104 92.416-15.104 71.68-41.472 46.592-62.208 16.64-77.312q0-58.88-27.904-100.864t-83.2-64q67.584-20.992 101.888-66.56t34.304-113.152q0-48.64-18.432-88.064t-51.712-67.072-79.616-42.752-102.656-15.104zM296.96 214.528q33.28 0 59.392 9.472t43.776 26.624 26.88 40.704 9.216 51.2q0 33.792-10.496 58.368t-29.184 40.704-44.288 24.064-55.296 7.936-55.296-7.936-44.288-24.064-29.184-40.704-10.496-58.368q0-27.648 9.216-51.2t26.88-40.704 43.776-26.624 59.392-9.472zM296.96 561.152q33.28 0 56.32 10.24t37.12 27.392 20.48 39.168 6.4 45.056-7.424 43.776-22.528 36.096-37.632 24.576-52.736 9.216-52.992-9.216-37.632-24.576-22.272-36.096-7.424-43.776 6.4-45.056 20.48-39.168 37.12-27.392 56.32-10.24z" />
<glyph unicode="&#x39;" glyph-name="uni39" horiz-adv-x="594" d="M346.624 424.96q10.24 12.8 18.944 24.32t16.896 23.296q-27.136-19.456-59.904-29.184t-69.632-9.728q-39.936 0-76.8 13.568t-65.536 40.448-45.824 66.56-17.152 91.392q0 48.64 18.176 91.648t50.944 75.008 78.336 50.432 100.864 18.432q54.784 0 99.328-17.664t75.776-49.664 48.128-76.288 16.896-97.536q0-33.28-5.888-62.976t-16.896-57.6-26.624-54.784-35.072-54.528l-173.568-248.832q-7.68-11.264-22.784-18.432t-34.048-7.168h-100.864zM430.592 652.288q0 32.256-9.984 57.6t-28.16 43.264-43.264 27.392-54.784 9.472q-31.232 0-56.32-10.24t-43.008-28.416-27.648-43.008-9.728-54.528q0-65.536 35.072-100.608t98.048-35.072q33.792 0 59.648 10.752t43.776 28.928 27.136 42.496 9.216 51.968z" />
<glyph unicode="&#x3a;" glyph-name="uni3A" horiz-adv-x="260" d="M58.88 199.168q0 14.848 5.376 27.904t14.848 22.784 22.528 15.36 27.904 5.632 27.904-5.632 22.784-15.36 15.36-22.784 5.632-27.904q0-15.36-5.632-28.16t-15.36-22.528-22.784-15.104-27.904-5.376-27.904 5.376-22.528 15.104-14.848 22.528-5.376 28.16zM58.88 572.416q0 14.848 5.376 27.904t14.848 22.784 22.528 15.36 27.904 5.632 27.904-5.632 22.784-15.36 15.36-22.784 5.632-27.904q0-15.36-5.632-28.16t-15.36-22.528-22.784-15.104-27.904-5.376-27.904 5.376-22.528 15.104-14.848 22.528-5.376 28.16z" />
<glyph unicode="&#x3b;" glyph-name="uni3B" horiz-adv-x="273" d="M67.584 206.848q0 13.312 4.864 25.088t13.824 20.48 21.504 13.568 27.392 4.864q17.408 0 30.72-6.4t22.272-17.408 13.312-25.6 4.352-30.976q0-23.552-6.912-49.664t-20.48-51.968-33.28-50.432-44.8-45.056l-18.944 17.408q-4.096 4.096-5.888 7.68t-1.792 9.216q0 8.704 8.704 16.384 5.12 6.144 13.056 15.104t16.128 20.992 15.36 26.112 10.24 29.952h-2.56q-14.848 0-27.136 5.376t-21.248 14.848-13.824 22.272-4.864 28.16zM64.512 572.416q0 14.848 5.376 27.904t14.848 22.784 22.528 15.36 27.904 5.632 27.904-5.632 22.784-15.36 15.36-22.784 5.632-27.904q0-15.36-5.632-28.16t-15.36-22.528-22.784-15.104-27.904-5.376-27.904 5.376-22.528 15.104-14.848 22.528-5.376 28.16z" />
<glyph unicode="&#x3c;" glyph-name="uni3C" horiz-adv-x="594" d="M79.872 503.296l401.408 208.896v-79.36q0-9.216-4.608-16.896t-15.872-13.312l-206.848-104.96q-11.264-5.632-23.552-9.728t-25.6-7.68q13.312-3.072 25.6-7.424t23.552-9.984l206.848-104.448q11.264-5.632 15.872-13.312t4.608-17.408v-78.848l-401.408 208.896v45.568z" />
<glyph unicode="&#x3d;" glyph-name="uni3D" horiz-adv-x="594" d="M73.216 433.664h447.488v-83.456h-447.488v83.456zM73.216 609.792h447.488v-82.944h-447.488v82.944z" />
<glyph unicode="&#x3e;" glyph-name="uni3E" horiz-adv-x="594" d="M514.048 457.728l-401.408-208.896v78.848q0 9.728 4.608 17.408t15.872 13.312l206.848 104.448q10.752 5.632 23.040 9.984t26.112 7.424q-13.824 3.584-26.112 7.68t-23.040 9.728l-206.848 104.96q-11.264 5.632-15.872 13.312t-4.608 16.896v79.36l401.408-208.896v-45.568z" />
<glyph unicode="&#x3f;" glyph-name="uni3F" horiz-adv-x="465" d="M38.912 806.912q16.896 15.36 36.864 28.672t43.264 23.552 50.688 16.128 59.136 5.888q42.496 0 78.080-12.032t61.44-34.304 40.192-53.76 14.336-70.4-11.264-67.328-28.672-49.408-37.888-36.608-38.656-29.184-31.232-27.136-15.616-29.952l-10.752-76.8h-74.752l-7.68 84.48q-2.56 24.064 7.68 41.472t27.392 32.768 37.888 29.44 38.656 31.488 30.208 38.912 12.288 51.712q0 19.968-7.68 36.096t-21.504 27.392-32.256 17.408-39.936 6.144q-30.208 0-51.2-7.168t-35.84-15.616-24.576-15.36-16.384-6.912q-15.872 0-23.552 13.824zM137.216 199.168q0 14.848 5.376 27.904t14.848 22.784 22.528 15.36 27.904 5.632 27.904-5.632 22.784-15.36 15.36-22.784 5.632-27.904q0-15.36-5.632-28.16t-15.36-22.528-22.784-15.104-27.904-5.376-27.904 5.376-22.528 15.104-14.848 22.528-5.376 28.16z" />
<glyph unicode="&#x40;" glyph-name="uni40" horiz-adv-x="860" d="M608.256 230.4q-37.376 0-63.744 17.408t-35.072 55.808q-30.208-38.4-64.256-55.296t-73.984-16.896q-31.232 0-54.528 11.008t-38.656 30.208-23.040 45.568-7.68 57.088q0 29.184 7.424 58.88t22.016 57.344 36.864 51.968 51.712 42.24 66.304 28.416 80.896 10.496q36.864 0 64-5.632t51.712-16.384l-48.128-187.904q-9.216-35.328-9.216-57.856t6.912-35.072 19.2-17.408 27.136-4.864q23.040 0 44.032 13.824t36.608 38.912 24.832 60.16 9.216 77.056q0 68.608-21.76 120.32t-60.16 86.528-91.136 52.224-114.688 17.408q-67.584 0-126.208-25.6t-101.888-70.656-68.096-106.496-24.832-132.608q0-85.504 26.624-150.016t72.96-108.032 109.312-65.536 135.168-22.016q78.848 0 137.216 16.384t98.304 39.936q11.776 7.168 20.992 4.352t13.312-13.568l15.36-40.448q-54.272-35.84-124.672-57.344t-160.512-21.504q-90.624 0-168.448 28.672t-134.656 82.432-89.088 131.328-32.256 175.36q0 55.296 14.080 106.752t39.936 96.768 62.208 82.944 80.896 64.512 96.256 41.728 108.032 14.848q47.616 0 93.44-10.496t86.528-30.976 75.008-50.688 59.136-68.864 38.656-85.76 13.824-101.888-15.872-102.144-44.032-82.176-66.56-54.784-82.944-19.968zM393.216 303.104q14.336 0 29.184 4.608t28.416 16.128 25.088 30.976 19.2 48.64l37.888 147.456q-17.408 3.584-38.4 3.584-34.816 0-64.512-14.848t-51.456-39.424-34.048-56.576-12.288-65.792q0-34.816 15.616-54.784t45.312-19.968z" />
<glyph unicode="&#x41;" glyph-name="uni41" horiz-adv-x="703" d="M704.512 135.68h-92.672q-15.872 0-25.6 7.936t-14.848 19.712l-61.44 162.816h-317.44l-61.44-162.816q-4.096-10.24-14.336-18.944t-25.6-8.704h-92.672l292.352 737.28h121.344zM224.768 412.16h252.928l-101.376 269.312q-6.144 14.848-12.544 35.328t-12.544 44.032q-6.144-24.064-12.544-44.288t-12.032-35.584z" />
<glyph unicode="&#x42;" glyph-name="uni42" horiz-adv-x="669" d="M87.552 135.68v737.28h245.248q70.656 0 120.832-13.568t82.432-38.656 47.36-61.184 15.104-81.152q0-26.112-7.936-50.688t-24.576-45.568-41.728-38.144-59.392-28.416q78.336-16.384 117.504-57.856t39.168-108.032q0-47.104-17.664-86.272t-51.2-67.584-82.688-44.288-112.128-15.872h-270.336zM207.36 464.384v-233.984h148.48q40.448 0 68.352 9.472t45.568 25.856 25.6 38.656 7.936 47.872q0 52.224-35.584 82.176t-112.384 29.952h-147.968zM207.36 548.864h119.808q76.8 0 114.688 29.696t37.888 85.504q0 60.928-35.584 88.064t-111.36 27.136h-125.44v-230.4z" />
<glyph unicode="&#x43;" glyph-name="uni43" horiz-adv-x="680" d="M599.552 300.032q9.728 0 16.896-7.68l47.616-51.712q-45.056-54.272-110.592-83.712t-156.672-29.44q-80.896 0-146.176 27.904t-111.36 77.824-70.912 119.040-24.832 152.064 26.368 152.32 74.24 119.296 114.688 77.568 147.2 27.648q79.872 0 141.056-25.856t106.24-68.864l-39.424-55.808q-4.096-5.632-9.728-9.728t-15.36-4.096q-10.24 0-23.296 9.472t-33.28 20.992-50.688 20.992-76.032 9.472q-52.736 0-96.768-18.432t-75.776-53.76-49.408-86.016-17.664-115.2q0-65.024 18.432-115.968t50.688-86.016 75.776-53.504 93.696-18.432q30.72 0 55.040 3.328t44.8 10.752 38.656 18.688 36.096 27.648q10.24 9.216 20.48 9.216z" />
<glyph unicode="&#x44;" glyph-name="uni44" horiz-adv-x="779" d="M734.72 504.32q0-81.92-26.624-149.76t-75.008-116.48-116.224-75.52-150.784-26.88h-278.528v737.28h278.528q82.944 0 150.784-26.88t116.224-75.52 75.008-116.48 26.624-149.76zM612.352 504.32q0 63.488-17.152 114.176t-49.152 85.504-77.568 53.504-102.4 18.688h-158.208v-543.744h158.208q56.832 0 102.4 18.432t77.568 53.504 49.152 85.504 17.152 114.432z" />
<glyph unicode="&#x45;" glyph-name="uni45" horiz-adv-x="590" d="M547.328 872.96v-96.768h-339.456v-222.208h271.36v-93.696h-271.36v-227.84h339.968l-0.512-96.768h-459.776v737.28h459.776z" />
<glyph unicode="&#x46;" glyph-name="uni46" horiz-adv-x="579" d="M547.328 872.96v-96.768h-339.456v-236.032h288.256v-96.768h-288.256v-307.712h-120.32v737.28h459.776z" />
<glyph unicode="&#x47;" glyph-name="uni47" horiz-adv-x="745" d="M691.2 206.848q-110.080-79.36-256-79.36-89.6 0-162.048 27.904t-123.648 77.824-78.848 119.040-27.648 152.064q0 83.456 26.624 152.832t76.288 119.296 119.808 77.312 157.696 27.392q44.544 0 82.688-6.912t70.912-19.2 60.416-29.696 50.688-38.912l-34.304-54.784q-8.192-12.8-20.992-15.872t-27.648 6.144q-14.848 8.704-31.488 18.432t-38.144 18.176-49.664 13.824-66.56 5.376q-58.368 0-105.216-19.2t-80.128-54.784-51.2-86.272-17.92-113.152q0-66.048 18.944-118.016t53.76-88.064 84.224-55.040 110.336-18.944q45.568 0 81.152 9.728t69.888 27.136v146.432h-102.912q-11.776 0-18.432 6.4t-6.656 16.64v68.096h236.032v-291.84z" />
<glyph unicode="&#x48;" glyph-name="uni48" horiz-adv-x="786" d="M697.856 135.68h-119.808v328.192h-370.176v-328.192h-120.32v737.28h120.32v-322.56h370.176v322.56h119.808v-737.28z" />
<glyph unicode="&#x49;" glyph-name="uni49" horiz-adv-x="295" d="M207.872 135.68h-120.32v737.28h120.32v-737.28z" />
<glyph unicode="&#x4a;" glyph-name="uni4A" horiz-adv-x="436" d="M355.84 394.752q0-61.952-15.104-111.36t-45.056-83.968-74.24-53.248-102.656-18.688q-26.624 0-52.736 3.328t-54.272 10.496l6.144 71.68q1.536 10.24 7.936 16.384t18.688 6.144q9.216 0 23.808-3.84t38.144-3.84q31.232 0 55.552 9.216t40.96 28.928 25.088 50.688 8.448 75.008v481.28h119.296v-478.208z" />
<glyph unicode="&#x4b;" glyph-name="uni4B" horiz-adv-x="691" d="M207.36 557.568h34.304q19.456 0 31.744 5.376t22.016 17.152l223.232 266.24q11.776 14.848 24.32 20.736t31.488 5.888h102.4l-263.68-311.296q-10.752-13.312-20.736-22.272t-21.76-14.592q15.36-5.632 27.648-15.616t24.064-26.368l273.408-347.136h-104.448q-11.264 0-19.2 1.536t-13.824 4.608-10.24 7.68-7.936 10.24l-230.4 281.6q-5.12 6.656-10.24 11.264t-12.032 7.68-15.616 4.352-20.48 1.28h-44.032v-330.24h-119.808v737.28h119.808v-315.392z" />
<glyph unicode="&#x4c;" glyph-name="uni4C" horiz-adv-x="529" d="M207.36 236.032h306.176v-100.352h-425.984v737.28h119.808v-636.928z" />
<glyph unicode="&#x4d;" glyph-name="uni4D" horiz-adv-x="959" d="M454.144 424.448q7.168-14.848 14.336-30.464t12.8-32q6.144 16.384 13.056 32.512t14.592 30.976l232.96 427.52q7.168 14.336 15.872 17.152t24.576 2.816h89.6v-737.28h-105.472v505.344q0 12.288 0.768 26.624t1.792 29.184l-236.544-437.248q-13.824-27.136-42.496-27.136h-16.896q-29.184 0-42.496 27.136l-241.152 438.784q1.536-15.36 2.56-29.952t1.024-27.392v-505.344h-105.472v737.28h89.6q15.872 0 24.576-2.816t15.872-17.152l236.544-428.544z" />
<glyph unicode="&#x4e;" glyph-name="uni4E" horiz-adv-x="786" d="M150.016 872.96q7.68 0 13.056-0.768t9.984-2.816 8.704-6.144 8.704-10.24l405.504-520.704q-1.536 15.872-2.304 31.232t-0.768 28.672v480.768h104.96v-737.28h-60.928q-13.824 0-23.552 4.864t-18.432 16.128l-404.992 520.192q1.536-14.848 2.304-29.44t0.768-26.88v-484.864h-105.472v737.28h62.464z" />
<glyph unicode="&#x4f;" glyph-name="uni4F" horiz-adv-x="824" d="M780.288 504.32q0-81.92-26.624-151.040t-75.008-119.040-116.224-78.080-150.784-28.16q-82.432 0-150.272 28.16t-116.48 78.080-75.264 119.040-26.624 151.040 26.624 151.040 75.264 119.296 116.48 78.336 150.272 28.16q82.944 0 150.784-28.16t116.224-78.336 75.008-119.296 26.624-151.040zM657.92 504.32q0 63.488-17.152 114.176t-49.152 86.016-77.568 54.272-102.4 18.944q-56.32 0-101.888-18.944t-77.824-54.272-49.664-86.016-17.408-114.176q0-64 17.408-114.688t49.664-85.76 77.824-53.76 101.888-18.688q56.832 0 102.4 18.688t77.568 53.76 49.152 85.76 17.152 114.688z" />
<glyph unicode="&#x50;" glyph-name="uni50" horiz-adv-x="625" d="M207.36 402.432v-266.752h-119.808v737.28h229.376q72.192 0 125.184-16.896t87.552-47.36 51.456-73.216 16.896-94.464q0-52.736-17.92-96.512t-53.248-75.264-87.808-49.152-122.112-17.664h-109.568zM207.36 497.152h109.568q39.936 0 70.4 10.24t50.688 28.928 30.464 45.312 10.24 59.392q0 32.256-9.984 57.856t-29.952 43.52-50.432 27.392-71.424 9.472h-109.568v-282.112z" />
<glyph unicode="&#x51;" glyph-name="uni51" horiz-adv-x="824" d="M780.8 504.32q0-50.688-10.24-96.512t-29.696-85.76-47.616-72.704-64-57.344l187.904-203.776h-98.304q-22.016 0-38.912 5.888t-31.232 21.248l-118.272 129.536q-27.648-8.192-57.088-12.544t-61.184-4.352q-82.432 0-150.272 28.16t-116.48 78.080-75.264 119.040-26.624 151.040 26.624 151.040 75.264 119.296 116.48 78.336 150.272 28.16q82.944 0 150.784-28.16t116.224-78.336 75.008-119.296 26.624-151.040zM658.432 504.32q0 63.488-17.152 114.176t-49.152 86.016-77.568 54.272-102.4 18.944q-56.32 0-101.888-18.944t-77.824-54.272-49.664-86.016-17.408-114.176q0-64 17.408-114.688t49.664-85.76 77.824-53.76 101.888-18.688q56.832 0 102.4 18.688t77.568 53.76 49.152 85.76 17.152 114.688z" />
<glyph unicode="&#x52;" glyph-name="uni52" horiz-adv-x="650" d="M207.36 432.64v-296.96h-119.808v737.28h217.088q72.704 0 125.184-14.848t86.272-42.24 49.92-65.792 16.128-85.504q0-38.4-11.52-71.68t-33.28-60.416-53.76-47.104-72.448-31.232q22.528-13.312 38.4-37.376l199.168-281.088h-107.008q-31.744 0-46.080 24.576l-172.032 248.32q-8.704 12.8-18.944 18.432t-30.72 5.632h-66.56zM207.36 519.68h94.208q40.96 0 71.68 9.984t51.2 27.904 30.72 42.752 10.24 55.040q0 60.416-39.936 92.16t-120.832 31.744h-97.28v-259.584z" />
<glyph unicode="&#x53;" glyph-name="uni53" horiz-adv-x="559" d="M473.088 747.008q-5.632-9.216-11.776-13.568t-15.36-4.352q-9.728 0-21.76 8.192t-29.696 18.176-41.728 18.432-57.344 8.448q-30.72 0-54.016-7.68t-39.168-21.504-23.808-32.512-7.936-40.704q0-28.16 14.848-46.848t39.168-32 55.552-23.296 63.744-21.248 63.744-25.6 55.552-36.352 39.168-53.76 14.848-77.312q0-49.152-16.896-92.16t-48.896-75.008-78.848-50.432-106.752-18.432q-35.328 0-68.864 6.912t-64 19.456-57.088 30.464-47.616 39.936l34.816 57.344q4.608 7.168 11.776 11.264t15.872 4.096q11.776 0 26.112-11.008t34.56-24.064 48.896-24.064 68.608-11.008q65.024 0 100.608 31.744t35.584 87.552q0 31.232-14.848 50.944t-39.168 33.024-55.552 22.528-63.488 19.712-63.488 24.576-55.552 36.864-39.168 56.32-14.848 83.712q0 39.936 15.616 77.312t45.568 66.304 73.984 46.336 100.352 17.408q63.488 0 116.48-19.968t91.392-56.832z" />
<glyph unicode="&#x54;" glyph-name="uni54" horiz-adv-x="610" d="M594.944 872.96v-99.84h-229.888v-637.44h-119.296v637.44h-230.4v99.84h579.584z" />
<glyph unicode="&#x55;" glyph-name="uni55" horiz-adv-x="757" d="M378.368 232.448q42.496 0 76.032 14.336t56.832 39.936 35.584 61.696 12.288 80.128v444.416h119.296v-444.416q0-65.024-20.736-120.32t-59.648-95.488-94.464-62.976-125.184-22.784-125.184 22.784-94.464 62.976-59.648 95.488-20.736 120.32v444.416h119.808v-443.904q0-44.032 12.288-80.128t35.328-61.952 56.576-40.192 76.032-14.336z" />
<glyph unicode="&#x56;" glyph-name="uni56" horiz-adv-x="703" d="M-1.536 872.96h95.744q15.872 0 25.6-7.936t14.848-19.712l189.952-480.768q7.168-19.968 14.592-43.52t13.568-49.664q5.632 26.112 12.032 49.664t14.080 43.52l189.44 480.768q4.096 10.24 14.336 18.944t25.6 8.704h96.256l-299.008-737.28h-108.032z" />
<glyph unicode="&#x57;" glyph-name="uni57" horiz-adv-x="1069" d="M11.776 872.96h100.352q15.36 0 25.856-7.424t14.080-20.224l138.24-472.576q4.096-15.36 7.424-33.024t6.912-37.12q4.096 19.456 8.448 37.376t9.472 32.768l158.208 472.576q3.584 10.24 14.336 18.944t25.6 8.704h34.816q15.872 0 25.6-7.936t14.848-19.712l157.696-472.576q5.12-14.848 9.216-32t8.192-36.608q3.584 18.944 6.912 36.352t7.424 32.256l137.728 472.576q3.072 11.264 14.080 19.456t25.856 8.192h93.696l-229.376-737.28h-108.032l-173.056 529.408q-3.072 8.704-5.888 18.944t-5.376 22.016q-2.56-11.776-5.632-22.016t-5.632-18.944l-174.592-529.408h-108.032z" />
<glyph unicode="&#x58;" glyph-name="uni58" horiz-adv-x="676" d="M254.464 514.048l-238.592 358.912h118.784q12.8 0 18.688-3.84t10.496-11.52l179.2-282.112q2.048 6.656 4.864 12.8t6.912 12.8l166.912 254.464q5.12 8.704 11.264 13.056t14.848 4.352h114.176l-240.64-353.28 248.32-384h-119.296q-12.288 0-19.968 6.656t-12.288 14.848l-183.296 295.424q-2.048-6.144-4.352-11.776t-5.376-10.752l-177.152-272.896q-5.632-8.192-12.544-14.848t-18.176-6.656h-111.616z" />
<glyph unicode="&#x59;" glyph-name="uni59" horiz-adv-x="652" d="M385.536 424.448v-288.768h-119.296v288.768l-269.312 448.512h104.96q15.872 0 25.088-7.68t15.36-19.456l151.040-264.192q10.24-19.968 18.688-37.888t14.592-35.328q6.144 17.92 14.336 35.584t18.432 37.632l150.016 264.192q5.12 10.24 14.848 18.688t25.088 8.448h105.472z" />
<glyph unicode="&#x5a;" glyph-name="uni5A" horiz-adv-x="618" d="M588.288 872.96v-44.544q0-10.24-3.328-19.968t-8.96-18.432l-395.776-557.568h400.384v-96.768h-557.056v47.104q0 9.728 3.072 18.176t8.192 16.128l396.8 559.104h-386.048v96.768h542.72z" />
<glyph unicode="&#x5b;" glyph-name="uni5B" horiz-adv-x="317" d="M88.576-17.92v942.592h199.68v-43.52q0-11.776-8.192-20.224t-21.504-8.448h-77.824v-797.696h77.824q13.312 0 21.504-8.704t8.192-20.48v-43.52h-199.68z" />
<glyph unicode="&#x5c;" glyph-name="uni5C" horiz-adv-x="471" d="M31.744 893.44h47.104q19.456 0 34.304-10.24t22.016-29.184l303.104-765.952h-46.080q-17.92 0-34.816 10.496t-24.576 31.488z" />
<glyph unicode="&#x5d;" glyph-name="uni5D" horiz-adv-x="317" d="M29.184 25.6q0 11.776 8.192 20.48t21.504 8.704h77.824v797.696h-77.824q-13.312 0-21.504 8.448t-8.192 20.224v43.52h199.68v-942.592h-199.68v43.52z" />
<glyph unicode="&#x5e;" glyph-name="uni5E" horiz-adv-x="594" d="M535.040 487.936h-79.872q-10.24 0-17.408 5.376t-11.264 14.080l-107.52 209.92q-7.168 14.848-12.8 28.928t-9.728 27.392q-4.096-13.312-9.216-27.392t-11.776-28.928l-102.4-209.92q-3.584-8.704-11.008-14.080t-19.2-5.376h-83.968l200.704 385.024h71.168z" />
<glyph unicode="&#x5f;" glyph-name="uni5F" horiz-adv-x="474" d="M438.784 59.904v-72.704h-403.456v72.704h403.456z" />
<glyph unicode="&#x60;" glyph-name="uni60" d="M156.672 881.152q18.944 0 28.16-6.144t16.384-18.944l74.752-123.904h-62.464q-12.8 0-20.736 3.584t-16.128 12.8l-123.392 132.608h103.424z" />
<glyph unicode="&#x61;" glyph-name="uni61" horiz-adv-x="515" d="M403.968 135.68q-15.872 0-24.064 4.864t-13.824 19.712l-10.752 42.496q-19.968-18.432-39.424-32.256t-40.192-23.552-44.544-14.592-52.48-4.864q-31.744 0-59.136 8.704t-47.36 26.368-31.488 43.776-11.52 61.44q0 30.208 16.128 58.88t53.248 51.456 97.792 37.632 149.76 16.896v34.816q0 56.32-24.064 83.968t-70.656 27.648q-31.744 0-53.248-7.936t-37.376-17.152-28.16-17.152-26.112-7.936q-11.264 0-19.2 5.888t-13.056 14.592l-19.968 35.84q88.576 82.432 210.944 82.432 45.056 0 80.128-14.592t58.88-41.216 36.352-63.232 12.544-81.152v-331.776h-49.152zM211.968 204.288q43.008 0 73.984 16.128t60.16 46.336v97.28q-58.88-2.56-99.328-9.728t-65.536-18.944-36.096-27.392-11.008-34.56q0-18.432 5.888-31.488t16.384-21.504 24.576-12.288 30.976-3.84z" />
<glyph unicode="&#x62;" glyph-name="uni62" horiz-adv-x="578" d="M67.072 135.68v757.76h110.080v-304.64q32.256 35.328 72.192 56.32t91.136 20.992q45.568 0 82.176-17.664t62.208-50.944 39.424-80.64 13.824-106.752q0-63.488-15.616-115.456t-44.8-89.088-70.656-57.344-92.672-20.224q-25.088 0-45.568 4.864t-37.888 13.824-32 22.016-27.904 29.44l-4.608-40.448q-2.56-11.776-9.216-16.896t-18.432-5.12h-71.68zM303.616 579.072q-40.448 0-70.4-18.176t-56.064-51.968v-242.176q23.040-29.696 50.432-41.728t59.648-12.032q65.024 0 101.376 47.104t36.352 145.92q0 90.112-31.488 131.584t-89.856 41.472z" />
<glyph unicode="&#x63;" glyph-name="uni63" horiz-adv-x="492" d="M436.224 555.52q-5.12-6.656-9.728-10.24t-13.312-3.584-18.176 6.144-22.528 13.568-31.488 13.568-46.080 6.144q-35.84 0-62.72-12.8t-45.056-36.608-27.136-57.856-8.96-76.544q0-44.032 9.728-78.336t27.904-57.856 44.032-35.84 58.112-12.288q31.744 0 51.712 7.68t33.28 16.896 22.784 16.896 20.224 7.68q13.312 0 20.48-10.24l31.232-40.448q-18.944-23.040-41.984-38.912t-48.64-25.856-53.248-14.336-55.808-4.352q-48.64 0-90.88 18.176t-73.728 52.736-49.664 84.48-18.176 113.92q0 57.856 16.384 107.264t47.872 85.248 78.080 56.064 107.52 20.224q56.832 0 100.096-18.432t77.056-52.224z" />
<glyph unicode="&#x64;" glyph-name="uni64" horiz-adv-x="578" d="M443.904 135.68q-22.016 0-28.16 20.992l-9.728 56.32q-16.384-18.944-34.816-34.56t-39.68-26.88-45.312-17.408-51.712-6.144q-44.032 0-79.872 17.664t-61.44 51.456-39.68 83.712-14.080 114.432q0 58.368 15.616 108.032t44.8 86.272 70.912 57.344 93.44 20.736q46.080 0 78.336-14.592t57.856-40.704v281.088h110.080v-757.76h-66.56zM271.36 216.576q41.984 0 72.192 17.92t56.832 51.712v243.2q-23.552 29.184-50.944 41.216t-59.648 12.032q-64.512 0-100.864-47.36t-36.352-140.032q0-48.128 8.192-82.176t23.552-55.552 37.376-31.232 49.664-9.728z" />
<glyph unicode="&#x65;" glyph-name="uni65" horiz-adv-x="544" d="M285.696 666.112q48.128 0 89.088-15.616t70.656-45.824 46.336-73.984 16.64-99.584q0-25.6-5.632-34.304t-20.48-8.704h-335.36q2.048-44.544 13.824-77.056t31.488-54.016 47.104-32 61.184-10.496q32.256 0 55.808 7.424t40.96 16.384 29.696 16.384 22.528 7.424q13.312 0 20.48-10.24l31.232-40.448q-19.456-23.040-44.032-38.912t-52.224-25.856-56.832-14.336-56.832-4.352q-54.272 0-100.608 18.176t-80.384 53.504-53.248 87.552-19.2 120.32q0 54.272 17.152 101.376t49.152 81.92 77.824 55.040 103.68 20.224zM287.744 586.24q-59.904 0-94.208-34.304t-43.52-96.256h259.584q0 27.648-7.936 51.456t-23.296 41.472-38.144 27.648-52.48 9.984z" />
<glyph unicode="&#x66;" glyph-name="uni66" horiz-adv-x="363" d="M102.4 135.68v434.688l-51.2 7.168q-12.8 2.56-20.736 9.216t-7.936 18.944v45.056h79.872v44.032q0 44.544 13.056 79.872t37.376 59.904 59.136 37.632 78.336 13.056q17.92 0 34.048-2.56t31.488-7.68l-2.048-55.296q-1.024-13.824-13.568-16.384t-31.488-2.56q-23.040 0-41.472-5.376t-31.488-18.176-19.968-33.792-6.912-52.224v-40.448h142.848v-79.36h-139.264v-435.712h-110.080z" />
<glyph unicode="&#x67;" glyph-name="uni67" horiz-adv-x="537" d="M253.44 667.136q33.792 0 63.232-7.424t54.016-20.736h146.432v-40.96q0-20.48-24.576-25.088l-52.224-8.704q13.312-30.72 13.312-66.048 0-38.4-15.104-69.632t-41.728-53.248-63.488-33.792-79.872-11.776q-16.384 0-32 1.792t-30.464 4.864q-14.848-8.704-22.016-18.432t-7.168-19.968q0-16.896 14.848-25.088t39.168-11.776 55.552-4.608 63.488-3.584 63.488-8.448 55.552-19.456 39.168-36.608 14.848-59.904q0-33.792-16.896-66.048t-48.896-57.344-78.080-40.192-104.96-15.104q-58.368 0-101.632 11.264t-72.192 30.464-43.008 44.288-14.080 52.224q0 36.864 23.296 62.976t63.232 40.96q-21.504 10.24-34.56 28.16t-13.056 47.104q0 11.264 4.096 23.552t12.544 24.32 20.992 22.784 29.44 19.456q-38.912 21.504-61.184 57.344t-22.272 83.456q0 38.912 15.104 70.144t42.24 53.248 64.256 33.792 81.152 11.776zM406.528 110.080q0 16.896-9.984 27.392t-26.88 16.64-39.68 8.704-47.872 4.096-51.712 2.816-51.2 4.864q-24.576-12.8-39.936-30.72t-15.36-41.472q0-15.36 7.936-28.672t24.576-23.040 42.496-15.36 62.208-5.632q72.704 0 109.056 22.528t36.352 57.856zM253.44 401.408q51.2 0 76.8 26.112t25.6 68.096q0 43.008-25.6 68.096t-76.8 25.088q-50.688 0-76.544-25.088t-25.856-68.096q0-20.48 6.656-37.888t19.456-29.952 32-19.456 44.288-6.912z" />
<glyph unicode="&#x68;" glyph-name="uni68" horiz-adv-x="574" d="M67.072 135.68v757.76h110.080v-297.472q32.256 31.744 70.656 50.944t89.6 19.2q43.008 0 75.52-14.336t54.784-40.448 33.536-62.72 11.264-80.64v-332.288h-109.568v332.288q0 52.736-24.32 81.92t-73.984 29.184q-36.864 0-68.352-16.896t-59.136-46.080v-380.416h-110.080z" />
<glyph unicode="&#x69;" glyph-name="uni69" horiz-adv-x="253" d="M181.76 657.92v-522.24h-110.080v522.24h110.080zM200.192 815.616q0-14.848-5.888-28.16t-16.128-23.296-23.808-15.872-28.928-5.888q-14.848 0-27.904 5.888t-22.784 15.872-15.616 23.296-5.888 28.16q0 15.36 5.888 28.672t15.616 23.296 22.784 15.872 27.904 5.888q15.36 0 28.928-5.888t23.808-15.872 16.128-23.296 5.888-28.672z" />
<glyph unicode="&#x6a;" glyph-name="uni6A" horiz-adv-x="253" d="M181.76 657.92v-549.376q0-32.768-8.704-61.696t-27.648-50.432-48.896-33.792-72.448-12.288q-17.92 0-32.256 2.56t-29.184 7.168l4.096 59.904q1.536 10.24 8.448 11.776t26.368 1.536q38.912 0 54.528 17.152t15.616 58.112v549.376h110.080zM199.68 815.616q0-14.848-5.888-28.16t-16.128-23.296-23.552-15.872-28.672-5.888q-14.848 0-27.904 5.888t-23.040 15.872-15.616 23.296-5.632 28.16q0 15.36 5.632 28.672t15.616 23.296 23.040 15.872 27.904 5.888q15.36 0 28.672-5.888t23.552-15.872 16.128-23.296 5.888-28.672z" />
<glyph unicode="&#x6b;" glyph-name="uni6B" horiz-adv-x="535" d="M177.152 893.44v-439.296h23.552q11.264 0 18.432 3.072t14.848 12.8l146.432 167.424q7.68 10.24 16.896 15.36t23.552 5.12h99.84l-176.128-198.656q-15.36-19.968-33.792-31.744 10.24-7.168 17.92-16.128t14.848-20.224l187.904-255.488h-98.304q-13.312 0-22.784 4.352t-16.64 16.128l-151.040 204.8q-7.68 11.776-15.36 15.104t-23.040 3.328h-27.136v-243.712h-110.080v757.76h110.080z" />
<glyph unicode="&#x6c;" glyph-name="uni6C" horiz-adv-x="248" d="M179.2 893.44v-757.76h-110.080v757.76h110.080z" />
<glyph unicode="&#x6d;" glyph-name="uni6D" horiz-adv-x="850" d="M67.072 135.68v522.24h66.56q22.528 0 28.672-20.992l7.168-45.568q14.336 16.384 29.696 29.952t33.024 23.552 37.888 15.616 43.776 5.632q25.088 0 46.080-7.168t37.12-20.48 27.904-32.256 19.456-42.496q11.776 27.136 29.696 46.592t39.936 31.744 46.848 18.176 50.432 5.888q41.984 0 75.008-13.312t55.808-38.656 34.56-62.208 11.776-83.968v-332.288h-110.080v332.288q0 55.296-23.808 83.2t-70.4 27.904q-20.992 0-39.424-7.168t-32.256-20.992-21.76-34.56-7.936-48.384v-332.288h-110.080v332.288q0 57.344-23.040 84.224t-67.584 26.88q-30.72 0-56.832-15.616t-48.128-42.752v-385.024h-110.080z" />
<glyph unicode="&#x6e;" glyph-name="uni6E" horiz-adv-x="574" d="M67.072 135.68v522.24h66.56q22.528 0 28.672-20.992l7.68-48.64q16.384 17.408 34.56 31.744t38.656 24.576 43.776 15.872 50.432 5.632q43.008 0 75.52-14.336t54.784-40.448 33.536-62.72 11.264-80.64v-332.288h-109.568v332.288q0 52.736-24.32 81.92t-73.984 29.184q-36.864 0-68.352-16.896t-59.136-46.080v-380.416h-110.080z" />
<glyph unicode="&#x6f;" glyph-name="uni6F" horiz-adv-x="585" d="M292.864 666.112q57.856 0 104.704-18.944t79.872-53.76 50.944-84.48 17.92-111.616-17.92-111.616-50.944-84.736-79.872-54.016-104.704-18.944q-58.368 0-105.216 18.944t-80.128 54.016-51.2 84.736-17.92 111.616 17.92 111.616 51.2 84.48 80.128 53.76 105.216 18.944zM292.864 214.016q70.656 0 105.216 47.36t34.56 135.424-34.56 135.936-105.216 47.872q-71.68 0-106.496-47.872t-34.816-135.936 34.816-135.424 106.496-47.36z" />
<glyph unicode="&#x70;" glyph-name="uni70" horiz-adv-x="578" d="M67.072-37.888v695.808h66.56q22.528 0 28.672-20.992l8.704-54.784q16.384 18.944 34.816 34.816t39.68 27.136 45.568 17.408 51.968 6.144q44.032 0 79.872-17.664t61.44-51.456 39.68-83.712 14.080-114.432q0-57.856-15.616-107.776t-44.8-86.528-70.656-57.344-93.696-20.736q-46.080 0-78.336 14.592t-57.856 40.704v-221.184h-110.080zM306.176 579.072q-42.496 0-72.704-18.176t-56.32-51.968v-242.176q23.040-29.696 50.432-41.728t60.672-12.032q64.512 0 100.608 47.104t36.096 140.288q0 48.128-8.192 82.176t-23.552 55.552-37.376 31.232-49.664 9.728z" />
<glyph unicode="&#x71;" glyph-name="uni71" horiz-adv-x="578" d="M510.464 657.92v-695.808h-110.080v244.736q-32.256-35.84-72.448-57.344t-93.44-21.504q-44.032 0-79.872 17.664t-61.44 51.456-39.68 83.712-14.080 114.432q0 58.368 15.616 108.032t44.8 86.272 70.912 57.344 93.44 20.736q25.088 0 45.824-4.352t38.144-12.8 32.512-20.48 28.416-27.392l6.656 34.304q6.144 20.992 28.16 20.992h66.56zM271.36 216.576q41.984 0 72.192 17.92t56.832 51.712v243.2q-23.040 29.184-50.688 41.216t-59.904 12.032q-64.512 0-100.864-47.36t-36.352-140.032q0-48.128 8.192-82.176t23.552-55.552 37.376-31.232 49.664-9.728z" />
<glyph unicode="&#x72;" glyph-name="uni72" horiz-adv-x="378" d="M67.072 135.68v522.24h64q17.408 0 24.064-6.4t9.216-22.272l6.144-68.096q25.088 49.664 59.904 78.080t83.456 28.416q16.896 0 31.744-3.84t26.624-11.52l-7.68-82.944q-2.048-8.704-6.4-12.032t-11.52-3.328q-7.68 0-22.016 2.816t-30.208 2.816q-23.040 0-40.96-6.656t-31.744-19.456-24.576-31.232-19.968-41.984v-324.608h-110.080z" />
<glyph unicode="&#x73;" glyph-name="uni73" horiz-adv-x="447" d="M378.88 563.2q-4.096-7.168-9.216-10.24t-12.8-3.072q-8.704 0-18.944 5.376t-24.064 12.032-32.512 12.032-43.776 5.376q-20.48 0-37.12-4.864t-28.16-13.824-17.664-20.992-6.144-25.856q0-18.432 11.264-30.72t29.696-21.248 41.984-16.128 48.128-15.36 48.128-18.944 41.984-26.368 29.696-37.888 11.264-54.016q0-36.864-13.312-68.096t-38.912-54.272-63.744-35.84-87.296-12.8q-27.136 0-52.48 4.864t-48.128 13.312-42.496 20.224-35.072 25.6l25.6 41.984q4.608 7.68 11.52 12.032t17.152 4.352q10.752 0 21.248-6.912t24.576-15.104 34.048-15.104 49.664-6.912q24.576 0 42.496 5.888t29.696 16.128 17.408 23.296 5.632 27.904q0 19.968-11.264 32.768t-29.952 22.016-42.496 16.384-48.384 15.36-48.384 18.944-42.496 27.392-29.952 40.448-11.264 58.112q0 31.232 12.544 59.392t36.864 49.664 59.904 34.048 82.176 12.544q52.736 0 95.744-16.896t72.192-46.080z" />
<glyph unicode="&#x74;" glyph-name="uni74" horiz-adv-x="374" d="M234.496 127.488q-65.024 0-100.096 36.608t-35.072 103.168v304.128h-57.344q-9.216 0-15.872 5.888t-6.656 17.664v44.544l84.48 12.288 24.064 151.040q2.56 8.704 8.704 14.080t16.384 5.376h56.32v-171.52h144.896v-79.36h-144.896v-296.448q0-28.16 13.824-43.008t36.864-14.848q12.8 0 22.016 3.328t15.872 7.168 11.52 7.168 9.472 3.328q9.216 0 14.848-10.24l32.768-53.76q-25.6-22.528-60.416-34.56t-71.68-12.032z" />
<glyph unicode="&#x75;" glyph-name="uni75" horiz-adv-x="574" d="M172.032 657.92v-332.288q0-52.736 24.32-81.92t73.984-29.184q36.352 0 67.84 16.64t59.136 45.824v380.928h110.080v-522.24h-66.56q-22.016 0-28.16 20.992l-8.192 48.64q-33.28-34.816-73.472-56.32t-93.44-21.504q-43.008 0-75.776 14.336t-55.040 40.448-33.536 62.72-11.264 80.64v332.288h110.080z" />
<glyph unicode="&#x76;" glyph-name="uni76" horiz-adv-x="535" d="M7.68 657.92h90.624q12.8 0 21.248-6.4t11.008-15.104l115.712-304.128q7.168-22.016 12.8-42.752t9.728-42.24q4.096 20.992 9.728 41.984t13.312 43.008l117.76 304.128q3.072 9.216 11.264 15.36t19.968 6.144h86.016l-209.92-522.24h-99.328z" />
<glyph unicode="&#x77;" glyph-name="uni77" horiz-adv-x="814" d="M12.8 657.92h87.040q12.8 0 21.248-6.4t11.008-15.104l87.040-304.128q5.12-20.992 8.96-40.704t6.912-39.168q5.12 19.456 10.496 39.168t12.032 40.704l97.792 305.664q2.56 9.216 10.496 15.104t19.2 5.888h48.128q11.776 0 19.968-5.888t10.752-15.104l95.232-305.664q5.632-20.992 11.264-40.96t10.24-39.424q6.144 38.912 17.408 80.384l88.576 304.128q3.072 9.216 11.264 15.36t19.968 6.144h82.944l-167.424-522.24h-87.552q-15.36 0-21.504 19.968l-103.936 325.12q-4.096 13.824-7.424 27.392t-5.888 27.392q-5.632-27.648-13.824-55.296l-105.472-324.608q-5.632-19.968-24.064-19.968h-83.456z" />
<glyph unicode="&#x78;" glyph-name="uni78" horiz-adv-x="523" d="M187.904 404.48l-173.568 253.44h105.472q12.8 0 18.688-3.84t10.496-11.52l117.76-184.832q4.096 14.848 14.848 32.768l99.84 150.016q10.24 17.408 26.112 17.408h100.864l-173.568-248.32 180.736-273.92h-105.472q-12.8 0-20.224 6.656t-12.032 14.848l-120.32 192.512q-4.608-17.92-12.288-29.696l-109.056-162.816q-5.632-8.192-12.544-14.848t-18.176-6.656h-98.304z" />
<glyph unicode="&#x79;" glyph-name="uni79" horiz-adv-x="535" d="M242.688-12.8q-5.632-11.776-13.568-18.432t-24.32-6.656h-81.408l96.256 208.896-212.992 486.912h95.744q13.824 0 21.248-6.4t11.008-15.104l124.416-296.448q9.216-25.6 15.36-51.2 4.096 13.312 8.448 26.112t9.472 25.6l119.296 295.936q3.584 9.216 12.032 15.36t18.688 6.144h88.064z" />
<glyph unicode="&#x7a;" glyph-name="uni7A" horiz-adv-x="467" d="M435.2 611.84q0-11.776-3.84-23.040t-11.008-18.944l-264.704-348.672h270.848v-85.504h-398.336v46.080q0 7.68 3.584 18.432t10.752 20.48l266.24 351.744h-265.216v85.504h391.68v-46.080z" />
<glyph unicode="&#x7b;" glyph-name="uni7B" horiz-adv-x="311" d="M97.28 348.672q0 32.256-16.128 52.224t-49.408 19.968v65.024q33.28 0 49.408 19.968t16.128 52.224q0 24.576-3.84 49.152t-8.192 49.152-8.192 49.408-3.84 50.432q0 37.376 11.008 68.352t33.28 53.248 55.808 34.56 79.104 12.288h27.136v-49.664q0-11.776-8.448-17.152t-15.616-5.376h-7.168q-37.888 0-58.368-24.064t-20.48-65.536q0-28.672 3.328-54.528t7.168-50.944 7.168-49.408 3.328-48.896q0-38.4-21.504-67.072t-57.856-38.912q36.352-9.728 57.856-38.4t21.504-67.072q0-24.576-3.328-48.896t-7.168-49.408-7.168-51.2-3.328-54.272q0-41.472 20.48-65.28t58.368-23.808h7.168q7.168 0 15.616-5.632t8.448-17.408v-49.664h-27.136q-45.568 0-79.104 12.288t-55.808 34.56-33.28 53.248-11.008 68.352q0 25.6 3.84 50.432t8.192 49.408 8.192 49.152 3.84 49.152z" />
<glyph unicode="&#x7c;" glyph-name="uni7C" horiz-adv-x="262" d="M88.576 924.672h84.992v-966.144h-84.992v966.144z" />
<glyph unicode="&#x7d;" glyph-name="uni7D" horiz-adv-x="311" d="M213.504 348.672q0-24.576 3.84-49.152t8.192-49.152 8.192-49.408 3.84-50.432q0-37.376-11.008-68.352t-33.28-53.248-55.808-34.56-78.592-12.288h-27.648v49.664q0 11.776 8.704 17.408t15.36 5.632h7.68q37.376 0 58.112 23.808t20.736 65.28q0 28.16-3.328 54.272t-7.424 51.2-7.424 49.408-3.328 48.896q0 18.944 5.632 36.096t15.872 30.976 24.832 23.808 32.512 14.592q-35.84 10.24-57.344 38.912t-21.504 67.072q0 24.576 3.328 48.896t7.424 49.408 7.424 50.944 3.328 54.528q0 41.472-20.736 65.536t-58.112 24.064h-7.68q-6.656 0-15.36 5.376t-8.704 17.152v49.664h27.648q45.056 0 78.592-12.288t55.808-34.56 33.28-53.248 11.008-68.352q0-25.6-3.84-50.432t-8.192-49.408-8.192-49.152-3.84-49.152q0-32.256 16.128-52.224t49.408-19.968v-65.024q-33.28 0-49.408-19.968t-16.128-52.224z" />
<glyph unicode="&#x7e;" glyph-name="uni7E" horiz-adv-x="594" d="M386.56 459.776q30.72 0 47.872 19.712t17.664 54.528h88.576q0-37.376-9.984-67.84t-28.928-52.224-46.336-33.792-62.208-12.032q-27.136 0-52.48 7.68t-48.384 16.896-43.776 16.896-38.144 7.68q-30.72 0-47.872-19.968t-17.664-54.272h-88.576q0 37.376 9.984 67.84t28.928 52.224 46.336 33.536 62.208 11.776q26.624 0 52.224-7.68t48.64-16.64 43.776-16.64 38.144-7.68z" />
<glyph unicode="&#xa1;" glyph-name="uniA1" horiz-adv-x="268" d="M82.432-37.888v274.944q0 23.040 1.024 45.312t3.072 45.056 4.864 46.336 5.888 49.152h74.24q3.584-25.6 6.144-49.152t4.608-46.336 3.072-45.056 1.024-45.312v-274.944h-103.936zM61.952 594.944q0 15.36 5.376 28.16t14.848 22.528 22.528 15.104 27.904 5.376 27.904-5.376 22.784-15.104 15.36-22.528 5.632-28.16q0-14.848-5.632-27.904t-15.36-22.784-22.784-15.36-27.904-5.632-27.904 5.632-22.528 15.36-14.848 22.784-5.376 27.904z" />
<glyph unicode="&#xa2;" glyph-name="uniA2" horiz-adv-x="594" d="M280.576 130.56q-46.592 6.144-86.016 26.624t-68.096 54.528-44.8 80.64-16.128 104.448q0 56.32 16.896 104.448t49.408 83.712 80.384 56.832 109.824 23.296l6.656 85.504q1.024 10.752 9.216 19.712t20.992 8.96h40.448l-9.216-117.76q41.472-7.168 74.496-23.808t60.672-42.24l-28.16-38.912q-4.096-6.144-8.96-9.472t-13.568-3.328q-6.656 0-14.592 3.84t-18.688 9.216-24.832 11.264-33.024 9.472l-28.16-365.056q29.696 2.56 49.408 10.24t33.536 15.872 23.808 14.592 19.2 6.4q13.824 0 20.48-9.728l30.208-38.912q-33.792-39.936-81.408-58.88t-101.888-23.040l-6.144-81.408q-1.024-10.752-8.96-19.712t-21.248-8.96h-40.448zM174.080 396.8q0-74.752 29.696-120.576t83.456-59.136l28.16 363.008q-71.168-7.168-106.24-54.784t-35.072-128.512z" />
<glyph unicode="&#xa3;" glyph-name="uniA3" horiz-adv-x="594" d="M21.504 481.792q0 15.36 9.472 26.624t27.904 11.264h61.44v126.464q0 48.128 14.080 90.88t42.752 74.752 71.68 50.688 100.864 18.688q40.448 0 72.192-10.24t56.32-27.904 42.752-41.472 31.488-51.456l-44.032-28.672q-15.36-7.68-29.44-6.656t-25.856 14.848q-9.728 12.288-19.712 22.784t-21.76 18.176-26.88 12.032-35.072 4.352q-58.368 0-87.552-37.632t-29.184-102.656v-126.976h217.088v-44.544q0-10.752-8.96-19.968t-22.784-9.216h-185.344v-110.592q0-35.328-13.568-62.464t-37.12-49.664q34.304 7.168 67.584 7.168h322.048v-46.592q0-8.704-3.328-17.152t-9.728-15.36-15.104-11.264-19.456-4.352h-492.032v70.144q17.408 4.608 33.28 12.8t28.16 20.224 19.456 28.672 7.168 38.656v139.776h-98.816v35.84z" />
<glyph unicode="&#xa4;" glyph-name="uniA4" horiz-adv-x="594" d="M111.104 480.256q0 27.648 7.424 52.736t21.248 47.104l-77.824 77.824 55.296 55.296 77.312-77.312q22.016 14.848 47.872 22.784t54.528 7.936q27.648 0 52.992-7.68t47.36-21.504l77.824 77.824 54.784-55.808-77.312-77.312q14.848-22.016 22.784-47.616t7.936-54.272q0-27.648-7.68-52.992t-21.504-46.848l77.824-77.824-55.296-55.808-77.824 77.312q-22.016-14.336-47.872-22.272t-54.016-7.936q-27.648 0-52.992 7.68t-46.848 20.992l-78.336-77.824-54.784 55.808 76.8 77.312q-14.336 22.016-22.016 47.872t-7.68 54.528zM192 480.256q0-21.504 8.192-40.448t22.528-33.024 33.536-22.528 40.704-8.448q22.016 0 41.472 8.448t33.792 22.528 22.528 33.024 8.192 40.448q0 22.016-8.192 41.216t-22.528 33.536-33.792 22.528-41.472 8.192q-21.504 0-40.704-8.192t-33.536-22.528-22.528-33.536-8.192-41.216z" />
<glyph unicode="&#xa5;" glyph-name="uniA5" horiz-adv-x="594" d="M73.216 457.728h148.992l-206.336 415.232h91.136q15.872 0 25.6-7.424t15.36-19.712l125.952-267.776q8.192-20.48 14.080-37.888t9.984-34.304q3.584 16.896 9.216 34.56t13.824 37.632l124.928 267.776q4.608 10.24 14.848 18.688t25.088 8.448h92.16l-206.336-415.232h148.992v-61.952h-168.96v-51.2h168.96v-62.464h-168.96v-146.432h-109.568v146.432h-168.96v62.464h168.96v51.2h-168.96v61.952z" />
<glyph unicode="&#xa6;" glyph-name="uniA6" horiz-adv-x="265" d="M90.112 924.672h84.992v-410.624h-84.992v410.624zM90.112 373.248h84.992v-411.136h-84.992v411.136z" />
<glyph unicode="&#xa7;" glyph-name="uniA7" horiz-adv-x="511" d="M416.256 777.728q-4.096-7.168-9.216-10.24t-12.8-3.072q-8.704 0-18.944 5.376t-24.064 11.776-32.512 11.776-43.776 5.376q-23.040 0-40.96-5.376t-30.208-14.848-18.688-22.016-6.4-26.88q0-17.408 12.288-30.976t32.256-25.088 45.824-22.016 52.48-22.016 52.48-25.344 45.824-32 32.256-41.728 12.288-54.784q0-40.96-19.456-74.24t-61.952-53.248q24.576-18.944 39.424-44.032t14.848-59.904q0-36.864-13.312-68.352t-39.168-54.528-64-35.84-87.296-12.8q-27.136 0-52.48 4.864t-47.872 13.312-42.24 20.224-35.072 25.6l25.6 41.984q9.216 16.384 28.672 16.384 10.752 0 20.992-6.912t24.832-15.104 35.328-15.104 51.968-6.912q46.592 0 72.192 20.48t25.6 54.272q0 22.016-12.544 37.632t-33.28 27.648-46.848 22.272-53.76 21.248-53.76 24.064-46.848 30.976-33.28 41.984-12.544 57.344q0 40.448 21.76 72.704t66.816 50.688q-24.576 19.456-39.936 46.592t-15.36 66.048q0 31.232 12.544 59.392t36.864 49.664 59.904 34.048 82.176 12.544q52.736 0 95.488-16.896t72.448-46.080zM145.408 506.88q0-23.552 16.384-40.192t41.984-30.208 57.344-25.856 62.464-27.136q24.064 11.776 34.56 28.928t10.496 38.144q0 24.576-15.616 41.984t-40.192 30.976-55.040 25.6-60.16 26.368q-28.16-13.824-40.192-30.464t-12.032-38.144z" />
<glyph unicode="&#xa8;" glyph-name="uniA8" d="M168.448 796.672q0-13.312-5.12-24.832t-14.080-19.968-20.992-13.568-25.344-5.12q-12.8 0-24.32 5.12t-20.224 13.568-13.824 19.968-5.12 24.832 5.12 25.344 13.824 20.992 20.224 14.080 24.32 5.12q13.312 0 25.344-5.12t20.992-14.080 14.080-20.992 5.12-25.344zM370.176 796.672q0-13.312-5.12-24.832t-14.080-19.968-20.736-13.568-25.088-5.12-24.832 5.12-20.224 13.568-13.824 19.968-5.12 24.832 5.12 25.344 13.824 20.992 20.224 14.080 24.832 5.12 25.088-5.12 20.736-14.080 14.080-20.992 5.12-25.344z" />
<glyph unicode="&#xa9;" glyph-name="uniA9" horiz-adv-x="847" d="M546.816 389.12q4.608 0.512 8.704-1.792t6.656-5.376l36.864-39.424q-28.672-35.328-71.68-54.272t-102.4-18.944q-50.688 0-92.16 17.92t-70.656 49.408-45.312 75.008-16.128 94.208q0 51.712 17.92 95.232t49.408 74.752 74.24 48.64 92.928 17.408q56.32 0 96-18.432t68.352-47.616l-28.672-40.448q-2.56-3.584-7.424-7.168t-12.032-3.584q-7.68 0-15.616 5.376t-19.712 12.032-29.696 12.032-46.080 5.376q-33.28 0-59.392-10.752t-44.544-30.72-28.16-48.384-9.728-63.744q0-36.864 9.984-65.536t27.648-48.384 41.728-29.696 52.736-9.984q26.112 0 43.008 4.096t29.184 9.984 22.272 12.032 21.76 10.752zM47.616 504.32q0 51.712 13.312 99.84t37.888 90.112 58.88 76.288 76.032 58.88 89.856 38.144 99.84 13.568 99.84-13.568 90.112-38.144 76.288-58.88 58.88-76.288 37.888-90.112 13.312-99.84-13.568-99.84-37.888-89.856-58.624-76.032-76.288-58.88-90.112-37.888-99.84-13.312-99.84 13.312-89.856 37.888-76.032 58.88-58.88 76.032-37.888 89.856-13.312 99.84zM108.544 504.32q0-67.584 24.32-126.208t66.816-101.888 100.096-68.352 123.648-25.088q44.032 0 84.992 11.264t76.032 32 64 49.92 49.408 65.024 31.744 77.056 11.264 86.272-11.264 86.784-31.744 77.568-49.408 65.28-64 50.432-76.032 32.512-84.992 11.52q-66.048 0-123.648-25.344t-100.096-69.12-66.816-102.912-24.32-126.72z" />
<glyph unicode="&#xaa;" glyph-name="uniAA" horiz-adv-x="376" d="M277.504 566.272q-11.264 0-16.64 3.072t-10.496 13.312l-6.656 21.504q-12.288-10.752-23.552-18.688t-23.552-13.312-26.368-7.936-30.976-2.56q-20.48 0-37.632 5.376t-29.44 16.128-19.2 26.624-6.912 36.864q0 17.408 9.216 34.56t31.232 31.488 58.624 23.552 91.392 10.24v15.36q0 30.208-13.056 43.264t-39.168 13.056q-18.432 0-30.464-4.096t-21.248-8.704-16.896-8.704-16.896-4.096q-8.192 0-13.568 4.608t-9.472 10.24l-13.824 25.6q27.648 26.112 60.416 37.888t71.168 11.776q28.16 0 50.688-8.96t38.144-25.088 23.808-38.4 8.192-48.384v-195.584h-36.864zM163.84 616.96q23.040 0 39.424 8.192t33.28 24.064v47.616q-32.768-1.024-54.784-4.864t-35.328-9.984-18.944-14.336-5.632-17.408q0-17.92 11.52-25.6t30.464-7.68z" />
<glyph unicode="&#xab;" glyph-name="uniAB" horiz-adv-x="454" d="M48.64 401.92v14.336l129.536 201.216 35.84-17.408q13.824-6.656 16.384-18.432t-5.12-26.112l-75.776-125.952q-7.68-13.824-15.872-20.48 4.096-3.584 7.936-8.704t7.936-11.264l75.776-126.464q7.68-13.824 5.12-25.856t-16.384-18.688l-35.84-17.408zM208.896 401.92v14.336l129.536 201.216 35.84-17.408q13.824-6.656 16.384-18.432t-5.12-26.112l-75.776-125.952q-7.68-13.824-15.872-20.48 4.096-3.584 7.936-8.704t7.936-11.264l75.776-126.464q7.68-13.824 5.12-25.856t-16.384-18.688l-35.84-17.408z" />
<glyph unicode="&#xac;" glyph-name="uniAC" horiz-adv-x="594" d="M71.68 520.704h447.488v-228.864h-93.184v145.92h-354.304v82.944z" />
<glyph unicode="&#xad;" glyph-name="uniAD" horiz-adv-x="381" d="M60.928 490.496h259.584v-93.184h-259.584v93.184z" />
<glyph unicode="&#xae;" glyph-name="uniAE" horiz-adv-x="847" d="M47.616 504.32q0 51.712 13.312 99.84t37.888 90.112 58.88 76.288 76.032 58.88 89.856 38.144 99.84 13.568 99.84-13.568 90.112-38.144 76.288-58.88 58.88-76.288 37.888-90.112 13.312-99.84-13.568-99.84-37.888-89.856-58.624-76.032-76.288-58.88-90.112-37.888-99.84-13.312-99.84 13.312-89.856 37.888-76.032 58.88-58.88 76.032-37.888 89.856-13.312 99.84zM108.544 504.32q0-67.584 24.32-126.208t66.816-101.888 100.096-68.352 123.648-25.088q44.032 0 84.992 11.264t76.032 32 64 49.92 49.408 65.024 31.744 77.056 11.264 86.272-11.264 86.784-31.744 77.568-49.408 65.28-64 50.432-76.032 32.512-84.992 11.52q-66.048 0-123.648-25.344t-100.096-69.12-66.816-102.912-24.32-126.72zM358.4 449.536v-173.056h-95.232v457.728h156.16q92.16 0 135.68-32.768t43.52-96.768q0-46.592-25.088-80.64t-76.8-48.384q10.24-6.144 17.152-15.104t13.056-20.736l104.448-163.328h-91.648q-19.968 0-28.672 14.848l-87.552 143.36q-5.12 7.168-11.264 11.008t-19.456 3.84h-34.304zM358.4 518.656h52.224q27.136 0 45.312 4.864t28.928 14.080 15.104 23.040 4.352 31.744q0 17.408-3.84 30.208t-13.568 21.248-26.112 12.8-41.472 4.352h-60.928v-142.336z" />
<glyph unicode="&#xaf;" glyph-name="uniAF" d="M54.784 832.512h300.032v-71.168h-300.032v71.168z" />
<glyph unicode="&#xb0;" glyph-name="uniB0" horiz-adv-x="425" d="M39.936 711.68q0 35.328 13.312 66.56t36.352 54.272 54.528 36.352 67.84 13.312 68.096-13.312 55.040-36.352 36.608-54.272 13.312-66.56q0-34.816-13.312-65.536t-36.608-53.76-55.040-36.608-68.096-13.568-67.84 13.568-54.528 36.608-36.352 53.76-13.312 65.536zM117.248 711.168q0-19.968 7.168-37.376t19.712-30.208 29.952-20.224 37.888-7.424 37.888 7.424 30.208 20.224 19.968 30.208 7.168 37.376q0 20.48-7.168 38.144t-19.968 30.72-30.208 20.48-37.888 7.424-37.888-7.424-29.952-20.48-19.712-30.72-7.168-38.144z" />
<glyph unicode="&#xb1;" glyph-name="uniB1" horiz-adv-x="594" d="M340.992 762.368v-186.368h203.776v-82.944h-203.776v-180.736h-89.088v180.736h-202.752v82.944h202.752v186.368h89.088zM49.152 259.584h495.616v-82.944h-495.616v82.944z" />
<glyph unicode="&#xb2;" glyph-name="uniB2" horiz-adv-x="342" d="M173.568 976.896q28.16 0 50.944-8.192t38.4-22.528 24.064-34.304 8.448-43.52q0-20.992-6.4-38.4t-17.152-33.536-24.576-30.976-28.672-30.208l-73.216-74.24q13.312 4.096 25.856 6.144t23.808 2.048h81.92q12.8 0 19.712-6.912t6.912-18.688v-47.104h-269.824v26.112q0 7.68 3.072 16.384t10.24 15.872l110.080 108.544q12.288 11.776 22.784 24.576t18.176 25.856 12.288 26.112 4.608 25.344q0 22.016-12.8 34.816t-32.768 12.8-32.256-10.24-18.944-28.672q-6.144-10.24-13.824-14.336t-23.552-1.536l-44.032 7.168q8.192 56.32 45.056 83.968t91.648 27.648z" />
<glyph unicode="&#xb3;" glyph-name="uniB3" horiz-adv-x="342" d="M174.592 976.896q27.648 0 49.664-7.936t37.376-21.248 23.552-30.976 8.192-37.12q0-64.512-57.856-89.088 32.256-9.728 48.896-28.928t16.64-50.432q0-30.208-11.264-52.48t-29.696-36.864-42.24-22.016-48.384-7.424q-28.16 0-49.92 5.632t-38.4 17.92-28.416 31.488-20.48 45.824l34.304 14.848q13.312 5.632 24.832 2.816t16.128-12.544q2.56-5.632 6.656-12.544t10.752-13.056 16.64-10.24 23.808-4.096 24.064 4.096 17.408 11.008 10.752 15.872 3.584 18.688q0 14.336-4.096 24.32t-13.312 16.384-24.576 9.216-37.888 2.816v52.736q21.504 0.512 36.096 4.096t23.552 10.24 12.544 16.128 3.584 21.248q0 22.016-12.288 34.048t-34.304 12.032q-21.504 0-33.792-9.984t-17.92-26.88q-5.632-11.776-12.544-15.36t-22.784-1.024l-40.96 7.168q4.096 28.16 15.616 49.152t28.928 34.816 39.68 20.736 47.872 6.912z" />
<glyph unicode="&#xb4;" glyph-name="uniB4" d="M368.64 881.152l-123.392-132.608q-8.192-9.216-16.128-12.8t-20.736-3.584h-65.536l74.24 123.904q7.168 12.8 16.64 18.944t27.904 6.144h107.008z" />
<glyph unicode="&#xb5;" glyph-name="uniB5" horiz-adv-x="671" d="M198.144 657.92v-311.808q0-52.224 24.576-83.2t73.728-30.976q43.52 0 75.264 23.552t52.224 66.048v336.384h110.080v-373.76q0-36.864 18.432-54.272t49.152-17.408h33.792v-44.032q0-14.848-18.688-26.368t-52.48-11.52q-21.504 0-41.472 6.144t-36.352 18.944-28.416 32.256-18.176 46.592q-29.184-44.544-66.304-68.864t-84.224-24.32q-67.584 0-105.472 38.912 4.096-21.504 5.632-44.032t1.536-41.984v-132.096h-54.272q-23.040 0-35.84 12.032t-12.8 34.56v649.216h110.080z" />
<glyph unicode="&#xb6;" glyph-name="uniB6" horiz-adv-x="737" d="M700.416 779.264h-111.104v-748.544h-96.256v748.544h-130.56v-748.544h-95.744v434.688q-53.248 0-96.256 16.128t-73.216 43.776-46.592 64.768-16.384 79.104q0 45.568 16.384 82.944t46.592 64.256 73.216 41.728 96.256 14.848h433.664v-93.696z" />
<glyph unicode="&#xb7;" glyph-name="uniB7" horiz-adv-x="274" d="M50.176 439.808q0 18.432 6.912 34.56t18.432 27.904 27.136 18.688 33.536 6.912q18.432 0 34.56-6.912t27.904-18.688 18.688-27.904 6.912-34.56q0-17.92-6.912-33.536t-18.688-27.392-27.904-18.688-34.56-6.912q-17.92 0-33.536 6.912t-27.136 18.688-18.432 27.392-6.912 33.536z" />
<glyph unicode="&#xb8;" glyph-name="uniB8" d="M143.872 11.776q3.584 0 7.424-1.536t9.216-3.328 12.288-3.328 16.128-1.536q19.456 0 28.928 7.424t9.472 18.176q0 17.408-19.968 24.32t-58.368 12.544l28.672 87.040h61.952l-14.336-50.176q48.128-10.24 68.352-28.928t20.224-46.336q0-16.896-8.704-30.464t-24.32-23.040-37.376-14.592-47.872-5.12q-20.992 0-39.68 3.584t-35.584 10.24l10.24 34.304q3.072 10.752 13.312 10.752z" />
<glyph unicode="&#xb9;" glyph-name="uniB9" horiz-adv-x="342" d="M77.824 648.192h72.704v202.752l2.56 24.064-46.592-37.376q-5.632-4.096-11.008-5.12t-9.984 0-8.448 3.584-5.888 5.12l-24.064 33.792 116.736 98.816h66.048v-325.632h62.464v-51.712h-214.528v51.712z" />
<glyph unicode="&#xba;" glyph-name="uniBA" horiz-adv-x="411" d="M206.336 882.176q36.352 0 66.304-11.264t51.2-32 33.024-50.432 11.776-66.56q0-37.888-11.776-67.84t-33.024-50.688-51.2-32-66.304-11.264q-36.864 0-67.072 11.264t-51.712 32-33.28 50.688-11.776 67.84q0 36.864 11.776 66.56t33.28 50.432 51.712 32 67.072 11.264zM206.336 625.152q76.288 0 76.288 95.744t-76.288 95.744q-39.936 0-58.88-23.808t-18.944-71.936 18.944-71.936 58.88-23.808z" />
<glyph unicode="&#xbb;" glyph-name="uniBB" horiz-adv-x="454" d="M244.736 416.256v-14.336l-129.536-201.216-35.84 17.408q-13.824 6.656-16.384 18.688t5.12 25.856l75.776 126.464q4.096 6.144 7.68 11.264t7.68 8.704q-8.192 7.168-15.36 20.48l-75.776 125.952q-7.68 14.336-5.12 26.112t16.384 18.432l35.84 17.408zM404.992 416.256v-14.336l-129.536-201.216-35.84 17.408q-13.824 6.656-16.384 18.688t5.12 25.856l75.776 126.464q4.096 6.144 7.68 11.264t7.68 8.704q-8.192 7.168-15.36 20.48l-75.776 125.952q-7.68 14.336-5.12 26.112t16.384 18.432l35.84 17.408z" />
<glyph unicode="&#xbc;" glyph-name="uniBC" horiz-adv-x="756" d="M223.232 167.936q-11.776-18.944-24.832-25.6t-30.976-6.656h-46.592l423.424 700.416q10.752 17.408 24.576 27.136t33.28 9.728h47.104zM71.68 548.352h72.704v202.752l2.56 24.064-46.592-37.376q-5.632-4.096-11.008-5.12t-9.984 0-8.448 3.584-5.888 5.12l-24.064 33.792 116.736 98.816h66.048v-325.632h62.464v-51.712h-214.528v51.712zM665.6 276.992h51.2v-40.448q0-5.632-4.096-10.24t-11.264-4.608h-35.84v-86.016h-66.56v86.016h-152.064q-10.752 0-16.896 4.864t-7.68 12.032l-6.656 34.304 173.568 239.104h76.288v-235.008zM599.040 379.392q0 11.264 0.768 24.32t2.816 27.392l-113.152-154.112h109.568v102.4z" />
<glyph unicode="&#xbd;" glyph-name="uniBD" horiz-adv-x="748" d="M202.752 167.936q-11.776-18.944-24.832-25.6t-30.976-6.656h-46.592l423.424 700.416q10.752 17.408 24.576 27.136t33.28 9.728h47.104zM72.704 548.352h72.704v202.752l2.56 24.064-46.592-37.376q-5.632-4.096-11.008-5.12t-9.984 0-8.448 3.584-5.888 5.12l-24.064 33.792 116.736 98.816h66.048v-325.632h62.464v-51.712h-214.528v51.712zM573.44 516.096q28.16 0 50.944-8.192t38.4-22.528 24.064-34.304 8.448-43.52q0-20.992-6.4-38.4t-17.152-33.536-24.576-30.976-28.672-30.208l-73.216-74.24q13.312 4.096 25.856 6.144t23.808 2.048h81.92q12.8 0 19.712-6.912t6.912-18.688v-47.104h-269.824v26.112q0 7.68 3.072 16.384t10.24 15.872l110.080 108.544q12.288 11.776 22.784 24.576t18.176 25.856 12.288 26.112 4.608 25.344q0 22.016-12.8 34.816t-32.768 12.8-32.256-10.24-18.944-28.672q-6.144-10.24-13.824-14.336t-23.552-1.536l-44.032 7.168q8.192 56.32 45.056 83.968t91.648 27.648z" />
<glyph unicode="&#xbe;" glyph-name="uniBE" horiz-adv-x="764" d="M233.472 167.936q-11.776-18.944-24.832-25.6t-30.976-6.656h-46.592l423.424 700.416q10.752 17.408 24.576 27.136t33.28 9.728h47.104zM184.32 877.056q27.648 0 49.664-7.936t37.376-21.248 23.552-30.976 8.192-37.12q0-64.512-57.856-89.088 32.256-9.728 48.896-28.928t16.64-50.432q0-30.208-11.264-52.48t-29.696-36.864-42.24-22.016-48.384-7.424q-28.16 0-49.92 5.632t-38.4 17.92-28.416 31.488-20.48 45.824l34.304 14.848q13.312 5.632 24.832 2.816t16.128-12.544q2.56-5.632 6.656-12.544t10.752-13.056 16.64-10.24 23.808-4.096 24.064 4.096 17.408 11.008 10.752 15.872 3.584 18.688q0 14.336-4.096 24.32t-13.312 16.384-24.576 9.216-37.888 2.816v52.736q21.504 0.512 36.096 4.096t23.552 10.24 12.544 16.128 3.584 21.248q0 22.016-12.288 34.048t-34.304 12.032q-21.504 0-33.792-9.984t-17.92-26.88q-5.632-11.776-12.544-15.36t-22.784-1.024l-40.96 7.168q4.096 28.16 15.616 49.152t28.928 34.816 39.68 20.736 47.872 6.912zM673.792 276.992h51.2v-40.448q0-5.632-4.096-10.24t-11.264-4.608h-35.84v-86.016h-66.56v86.016h-152.064q-10.752 0-16.896 4.864t-7.68 12.032l-6.656 34.304 173.568 239.104h76.288v-235.008zM607.232 379.392q0 11.264 0.768 24.32t2.816 27.392l-113.152-154.112h109.568v102.4z" />
<glyph unicode="&#xbf;" glyph-name="uniBF" horiz-adv-x="459" d="M424.448 29.696q-16.896-15.36-36.864-28.928t-43.264-23.808-50.688-16.128-59.136-5.888q-42.496 0-78.336 11.52t-61.44 33.28-39.936 52.736-14.336 69.888 11.264 66.048 28.672 46.592 37.888 33.024 38.656 25.344 31.232 23.808 15.616 28.928l10.24 76.8h75.264l7.68-84.48q2.56-25.088-7.936-42.24t-27.648-30.208-37.632-24.832-38.656-26.368-30.208-34.048-12.032-48.64q0-19.968 7.68-36.096t21.248-27.392 32-17.408 39.936-6.144q29.696 0 50.944 6.912t36.096 15.36 24.576 15.616 16.896 7.168q15.36 0 23.040-13.824zM182.784 594.432q0 14.848 5.376 27.904t14.848 22.784 22.528 15.36 27.904 5.632 27.904-5.632 22.784-15.36 15.36-22.784 5.632-27.904q0-15.36-5.632-28.16t-15.36-22.528-22.784-15.104-27.904-5.376-27.904 5.376-22.528 15.104-14.848 22.528-5.376 28.16z" />
<glyph unicode="&#xc0;" glyph-name="uniC0" horiz-adv-x="703" d="M704.512 135.68h-92.672q-15.872 0-25.6 7.936t-14.848 19.712l-61.44 162.816h-317.44l-61.44-162.816q-4.096-10.24-14.336-18.944t-25.6-8.704h-92.672l292.352 737.28h121.344zM224.768 412.16h252.928l-101.376 269.312q-6.144 14.848-12.544 35.328t-12.544 44.032q-6.144-24.064-12.544-44.288t-12.032-35.584zM264.192 1086.464q9.216 0 16.128-0.512t12.288-2.56 9.984-5.888 9.728-9.984l113.664-139.776h-79.36q-13.312 0-20.736 1.536t-16.128 9.728l-161.792 147.456h116.224z" />
<glyph unicode="&#xc1;" glyph-name="uniC1" horiz-adv-x="703" d="M704.512 135.68h-92.672q-15.872 0-25.6 7.936t-14.848 19.712l-61.44 162.816h-317.44l-61.44-162.816q-4.096-10.24-14.336-18.944t-25.6-8.704h-92.672l292.352 737.28h121.344zM224.768 412.16h252.928l-101.376 269.312q-6.144 14.848-12.544 35.328t-12.544 44.032q-6.144-24.064-12.544-44.288t-12.032-35.584zM556.032 1086.464l-166.4-146.432q-9.216-8.192-17.408-10.24t-20.48-2.048h-79.36l112.64 139.776q4.608 6.656 9.216 10.24t10.24 5.632 12.544 2.56 16.128 0.512h122.88z" />
<glyph unicode="&#xc2;" glyph-name="uniC2" horiz-adv-x="703" d="M704.512 135.68h-92.672q-15.872 0-25.6 7.936t-14.848 19.712l-61.44 162.816h-317.44l-61.44-162.816q-4.096-10.24-14.336-18.944t-25.6-8.704h-92.672l292.352 737.28h121.344zM224.768 412.16h252.928l-101.376 269.312q-6.144 14.848-12.544 35.328t-12.544 44.032q-6.144-24.064-12.544-44.288t-12.032-35.584zM525.312 927.744h-79.872q-7.168 0-16.896 2.56t-19.968 15.36l-50.688 61.952q-2.048 2.56-3.584 4.864t-3.072 4.864q-1.536-2.56-3.072-4.864t-3.584-4.864l-50.688-61.952q-10.24-12.8-19.968-15.36t-16.896-2.56h-76.288l122.88 140.288h98.816z" />
<glyph unicode="&#xc3;" glyph-name="uniC3" horiz-adv-x="703" d="M704.512 135.68h-92.672q-15.872 0-25.6 7.936t-14.848 19.712l-61.44 162.816h-317.44l-61.44-162.816q-4.096-10.24-14.336-18.944t-25.6-8.704h-92.672l292.352 737.28h121.344zM224.768 412.16h252.928l-101.376 269.312q-6.144 14.848-12.544 35.328t-12.544 44.032q-6.144-24.064-12.544-44.288t-12.032-35.584zM415.232 997.376q11.776 0 20.48 4.608t14.336 11.776 8.448 15.872 2.816 17.408h67.072q0-24.064-6.656-46.080t-19.2-38.912-31.232-27.136-42.752-10.24q-24.576 0-43.52 8.192t-34.56 18.176-29.184 18.176-27.392 8.192q-11.776 0-20.224-4.608t-14.080-11.776-8.448-16.128-2.816-17.664h-67.584q0 23.552 6.656 45.824t19.456 39.424 31.488 27.392 42.752 10.24q24.576 0 43.52-8.192t34.56-18.176 28.928-18.176 27.136-8.192z" />
<glyph unicode="&#xc4;" glyph-name="uniC4" horiz-adv-x="703" d="M704.512 135.68h-92.672q-15.872 0-25.6 7.936t-14.848 19.712l-61.44 162.816h-317.44l-61.44-162.816q-4.096-10.24-14.336-18.944t-25.6-8.704h-92.672l292.352 737.28h121.344zM224.768 412.16h252.928l-101.376 269.312q-6.144 14.848-12.544 35.328t-12.544 44.032q-6.144-24.064-12.544-44.288t-12.032-35.584zM304.128 989.184q0-12.8-5.12-24.064t-13.824-19.712-20.48-13.312-24.576-4.864q-12.288 0-23.552 4.864t-19.712 13.312-13.312 19.712-4.864 24.064 4.864 24.32 13.312 20.224 19.712 13.824 23.552 5.12q12.8 0 24.576-5.12t20.48-13.824 13.824-20.224 5.12-24.32zM523.776 989.184q0-12.8-5.12-24.064t-13.568-19.712-19.712-13.312-24.064-4.864q-13.312 0-24.576 4.864t-19.968 13.312-13.568 19.712-4.864 24.064 4.864 24.32 13.568 20.224 19.968 13.824 24.576 5.12q12.8 0 24.064-5.12t19.712-13.824 13.568-20.224 5.12-24.32z" />
<glyph unicode="&#xc5;" glyph-name="uniC5" horiz-adv-x="703" d="M704.512 135.68h-92.672q-15.872 0-25.6 7.936t-14.848 19.712l-61.44 162.816h-317.44l-61.44-162.816q-4.096-10.24-14.336-18.944t-25.6-8.704h-92.672l292.352 737.28h121.344zM224.768 412.16h252.928l-101.376 269.312q-6.144 14.848-12.544 35.328t-12.544 44.032q-6.144-24.064-12.544-44.288t-12.032-35.584zM249.856 1007.104q0 20.992 8.192 38.656t22.016 30.208 32.256 19.456 38.4 6.912q20.992 0 39.68-6.912t32.768-19.456 22.272-30.208 8.192-38.656q0-20.48-8.192-37.632t-22.272-29.44-32.768-18.944-39.68-6.656q-19.968 0-38.4 6.656t-32.256 18.944-22.016 29.44-8.192 37.632zM303.104 1007.104q0-20.992 13.056-34.56t36.096-13.568q21.504 0 34.816 13.568t13.312 34.56q0 22.016-13.312 35.328t-34.816 13.312q-23.040 0-36.096-13.312t-13.056-35.328z" />
<glyph unicode="&#xc6;" glyph-name="uniC6" horiz-adv-x="954" d="M374.784 872.96h536.576v-96.768h-368.64l27.648-222.208h272.896v-93.696h-261.632l28.16-227.84h302.080l-0.512-96.768h-401.92l-23.552 190.464h-275.456l-81.408-162.816q-5.632-12.8-17.152-20.224t-27.904-7.424h-91.136zM253.44 412.16h221.696l-46.080 370.688q-7.168-24.064-15.36-44.8t-16.384-38.656z" />
<glyph unicode="&#xc7;" glyph-name="uniC7" horiz-adv-x="680" d="M337.92 11.776q3.584 0 7.424-1.536t9.216-3.328 12.288-3.328 16.128-1.536q19.456 0 28.928 7.424t9.472 18.176q0 17.408-19.968 24.32t-58.368 12.544l20.992 64.512q-73.728 5.12-132.864 35.072t-100.864 79.36-64.256 115.968-22.528 144.896q0 82.944 26.368 152.32t74.24 119.296 114.688 77.568 147.2 27.648q79.872 0 141.056-25.856t106.24-68.864l-39.424-55.808q-4.096-5.632-9.728-9.728t-15.36-4.096q-10.24 0-23.296 9.472t-33.28 20.992-50.688 20.992-76.032 9.472q-52.736 0-96.768-18.432t-75.776-53.76-49.408-86.016-17.664-115.2q0-65.024 18.432-115.968t50.688-86.016 75.776-53.504 93.696-18.432q30.72 0 55.040 3.328t44.8 10.752 38.656 18.688 36.096 27.648q10.24 9.216 20.48 9.216 9.728 0 16.896-7.68l47.616-51.712q-41.472-49.664-99.328-78.336t-137.728-33.792l-7.68-27.136q48.128-10.24 68.352-28.928t20.224-46.336q0-16.896-8.704-30.464t-24.32-23.040-37.376-14.592-47.872-5.12q-20.992 0-39.68 3.584t-35.584 10.24l10.24 34.304q3.072 10.752 13.312 10.752z" />
<glyph unicode="&#xc8;" glyph-name="uniC8" horiz-adv-x="590" d="M547.328 872.96v-96.768h-339.456v-222.208h271.36v-93.696h-271.36v-227.84h339.968l-0.512-96.768h-459.776v737.28h459.776zM238.080 1086.464q9.216 0 16.128-0.512t12.288-2.56 9.984-5.888 9.728-9.984l113.664-139.776h-79.36q-13.312 0-20.736 1.536t-16.128 9.728l-161.792 147.456h116.224z" />
<glyph unicode="&#xc9;" glyph-name="uniC9" horiz-adv-x="590" d="M547.328 872.96v-96.768h-339.456v-222.208h271.36v-93.696h-271.36v-227.84h339.968l-0.512-96.768h-459.776v737.28h459.776zM529.92 1086.464l-166.4-146.432q-9.216-8.192-17.408-10.24t-20.48-2.048h-79.36l112.64 139.776q4.608 6.656 9.216 10.24t10.24 5.632 12.544 2.56 16.128 0.512h122.88z" />
<glyph unicode="&#xca;" glyph-name="uniCA" horiz-adv-x="590" d="M547.328 872.96v-96.768h-339.456v-222.208h271.36v-93.696h-271.36v-227.84h339.968l-0.512-96.768h-459.776v737.28h459.776zM498.688 927.744h-79.872q-7.168 0-16.896 2.56t-19.968 15.36l-50.688 61.952q-2.048 2.56-3.584 4.864t-3.072 4.864q-1.536-2.56-3.072-4.864t-3.584-4.864l-50.688-61.952q-10.24-12.8-19.968-15.36t-16.896-2.56h-76.288l122.88 140.288h98.816z" />
<glyph unicode="&#xcb;" glyph-name="uniCB" horiz-adv-x="590" d="M547.328 872.96v-96.768h-339.456v-222.208h271.36v-93.696h-271.36v-227.84h339.968l-0.512-96.768h-459.776v737.28h459.776zM277.504 989.184q0-12.8-5.12-24.064t-13.824-19.712-20.48-13.312-24.576-4.864q-12.288 0-23.552 4.864t-19.712 13.312-13.312 19.712-4.864 24.064 4.864 24.32 13.312 20.224 19.712 13.824 23.552 5.12q12.8 0 24.576-5.12t20.48-13.824 13.824-20.224 5.12-24.32zM497.152 989.184q0-12.8-5.12-24.064t-13.568-19.712-19.712-13.312-24.064-4.864q-13.312 0-24.576 4.864t-19.968 13.312-13.568 19.712-4.864 24.064 4.864 24.32 13.568 20.224 19.968 13.824 24.576 5.12q12.8 0 24.064-5.12t19.712-13.824 13.568-20.224 5.12-24.32z" />
<glyph unicode="&#xcc;" glyph-name="uniCC" horiz-adv-x="295" d="M207.872 135.68h-120.32v737.28h120.32v-737.28zM62.976 1086.464q9.216 0 16.128-0.512t12.288-2.56 9.984-5.888 9.728-9.984l113.664-139.776h-79.36q-13.312 0-20.736 1.536t-16.128 9.728l-161.792 147.456h116.224z" />
<glyph unicode="&#xcd;" glyph-name="uniCD" horiz-adv-x="295" d="M207.872 135.68h-120.32v737.28h120.32v-737.28zM354.816 1086.464l-166.4-146.432q-9.216-8.192-17.408-10.24t-20.48-2.048h-79.36l112.64 139.776q4.608 6.656 9.216 10.24t10.24 5.632 12.544 2.56 16.128 0.512h122.88z" />
<glyph unicode="&#xce;" glyph-name="uniCE" horiz-adv-x="295" d="M207.872 135.68h-120.32v737.28h120.32v-737.28zM323.584 927.744h-79.872q-7.168 0-16.896 2.56t-19.968 15.36l-50.688 61.952q-2.048 2.56-3.584 4.864t-3.072 4.864q-1.536-2.56-3.072-4.864t-3.584-4.864l-50.688-61.952q-10.24-12.8-19.968-15.36t-16.896-2.56h-76.288l122.88 140.288h98.816z" />
<glyph unicode="&#xcf;" glyph-name="uniCF" horiz-adv-x="295" d="M207.872 135.68h-120.32v737.28h120.32v-737.28zM102.4 989.184q0-12.8-5.12-24.064t-13.824-19.712-20.48-13.312-24.576-4.864q-12.288 0-23.552 4.864t-19.712 13.312-13.312 19.712-4.864 24.064 4.864 24.32 13.312 20.224 19.712 13.824 23.552 5.12q12.8 0 24.576-5.12t20.48-13.824 13.824-20.224 5.12-24.32zM322.048 989.184q0-12.8-5.12-24.064t-13.568-19.712-19.712-13.312-24.064-4.864q-13.312 0-24.576 4.864t-19.968 13.312-13.568 19.712-4.864 24.064 4.864 24.32 13.568 20.224 19.968 13.824 24.576 5.12q12.8 0 24.064-5.12t19.712-13.824 13.568-20.224 5.12-24.32z" />
<glyph unicode="&#xd0;" glyph-name="uniD0" horiz-adv-x="788" d="M0.512 541.696h96.256v331.264h278.528q82.944 0 150.784-26.88t116.224-75.52 75.008-116.48 26.624-149.76-26.624-149.76-75.008-116.48-116.224-75.52-150.784-26.88h-278.528v336.896h-96.256v69.12zM621.568 504.32q0 63.488-17.152 114.176t-49.152 85.504-77.568 53.504-102.4 18.688h-158.208v-234.496h141.824v-69.12h-141.824v-240.128h158.208q56.832 0 102.4 18.432t77.568 53.504 49.152 85.504 17.152 114.432z" />
<glyph unicode="&#xd1;" glyph-name="uniD1" horiz-adv-x="786" d="M150.016 872.96q7.68 0 13.056-0.768t9.984-2.816 8.704-6.144 8.704-10.24l405.504-520.704q-1.536 15.872-2.304 31.232t-0.768 28.672v480.768h104.96v-737.28h-60.928q-13.824 0-23.552 4.864t-18.432 16.128l-404.992 520.192q1.536-14.848 2.304-29.44t0.768-26.88v-484.864h-105.472v737.28h62.464zM462.336 996.864q11.776 0 20.48 4.608t14.336 11.776 8.448 15.872 2.816 17.408h67.072q0-24.064-6.656-46.080t-19.2-38.912-31.232-27.136-42.752-10.24q-24.576 0-43.52 8.192t-34.56 18.176-29.184 18.176-27.392 8.192q-11.776 0-20.224-4.608t-14.080-11.776-8.448-16.128-2.816-17.664h-67.584q0 23.552 6.656 45.824t19.456 39.424 31.488 27.392 42.752 10.24q24.576 0 43.52-8.192t34.56-18.176 28.928-18.176 27.136-8.192z" />
<glyph unicode="&#xd2;" glyph-name="uniD2" horiz-adv-x="824" d="M780.288 504.32q0-81.92-26.624-151.040t-75.008-119.040-116.224-78.080-150.784-28.16q-82.432 0-150.272 28.16t-116.48 78.080-75.264 119.040-26.624 151.040 26.624 151.040 75.264 119.296 116.48 78.336 150.272 28.16q82.944 0 150.784-28.16t116.224-78.336 75.008-119.296 26.624-151.040zM657.92 504.32q0 63.488-17.152 114.176t-49.152 86.016-77.568 54.272-102.4 18.944q-56.32 0-101.888-18.944t-77.824-54.272-49.664-86.016-17.408-114.176q0-64 17.408-114.688t49.664-85.76 77.824-53.76 101.888-18.688q56.832 0 102.4 18.688t77.568 53.76 49.152 85.76 17.152 114.688zM326.144 1086.464q9.216 0 16.128-0.512t12.288-2.56 9.984-5.888 9.728-9.984l113.664-139.776h-79.36q-13.312 0-20.736 1.536t-16.128 9.728l-161.792 147.456h116.224z" />
<glyph unicode="&#xd3;" glyph-name="uniD3" horiz-adv-x="824" d="M780.288 504.32q0-81.92-26.624-151.040t-75.008-119.040-116.224-78.080-150.784-28.16q-82.432 0-150.272 28.16t-116.48 78.080-75.264 119.040-26.624 151.040 26.624 151.040 75.264 119.296 116.48 78.336 150.272 28.16q82.944 0 150.784-28.16t116.224-78.336 75.008-119.296 26.624-151.040zM657.92 504.32q0 63.488-17.152 114.176t-49.152 86.016-77.568 54.272-102.4 18.944q-56.32 0-101.888-18.944t-77.824-54.272-49.664-86.016-17.408-114.176q0-64 17.408-114.688t49.664-85.76 77.824-53.76 101.888-18.688q56.832 0 102.4 18.688t77.568 53.76 49.152 85.76 17.152 114.688zM617.984 1086.464l-166.4-146.432q-9.216-8.192-17.408-10.24t-20.48-2.048h-79.36l112.64 139.776q4.608 6.656 9.216 10.24t10.24 5.632 12.544 2.56 16.128 0.512h122.88z" />
<glyph unicode="&#xd4;" glyph-name="uniD4" horiz-adv-x="824" d="M780.288 504.32q0-81.92-26.624-151.040t-75.008-119.040-116.224-78.080-150.784-28.16q-82.432 0-150.272 28.16t-116.48 78.080-75.264 119.040-26.624 151.040 26.624 151.040 75.264 119.296 116.48 78.336 150.272 28.16q82.944 0 150.784-28.16t116.224-78.336 75.008-119.296 26.624-151.040zM657.92 504.32q0 63.488-17.152 114.176t-49.152 86.016-77.568 54.272-102.4 18.944q-56.32 0-101.888-18.944t-77.824-54.272-49.664-86.016-17.408-114.176q0-64 17.408-114.688t49.664-85.76 77.824-53.76 101.888-18.688q56.832 0 102.4 18.688t77.568 53.76 49.152 85.76 17.152 114.688zM586.752 927.744h-79.872q-7.168 0-16.896 2.56t-19.968 15.36l-50.688 61.952q-2.048 2.56-3.584 4.864t-3.072 4.864q-1.536-2.56-3.072-4.864t-3.584-4.864l-50.688-61.952q-10.24-12.8-19.968-15.36t-16.896-2.56h-76.288l122.88 140.288h98.816z" />
<glyph unicode="&#xd5;" glyph-name="uniD5" horiz-adv-x="824" d="M780.288 504.32q0-81.92-26.624-151.040t-75.008-119.040-116.224-78.080-150.784-28.16q-82.432 0-150.272 28.16t-116.48 78.080-75.264 119.040-26.624 151.040 26.624 151.040 75.264 119.296 116.48 78.336 150.272 28.16q82.944 0 150.784-28.16t116.224-78.336 75.008-119.296 26.624-151.040zM657.92 504.32q0 63.488-17.152 114.176t-49.152 86.016-77.568 54.272-102.4 18.944q-56.32 0-101.888-18.944t-77.824-54.272-49.664-86.016-17.408-114.176q0-64 17.408-114.688t49.664-85.76 77.824-53.76 101.888-18.688q56.832 0 102.4 18.688t77.568 53.76 49.152 85.76 17.152 114.688zM476.672 997.376q11.776 0 20.48 4.608t14.336 11.776 8.448 15.872 2.816 17.408h67.072q0-24.064-6.656-46.080t-19.2-38.912-31.232-27.136-42.752-10.24q-24.576 0-43.52 8.192t-34.56 18.176-29.184 18.176-27.392 8.192q-11.776 0-20.224-4.608t-14.080-11.776-8.448-16.128-2.816-17.664h-67.584q0 23.552 6.656 45.824t19.456 39.424 31.488 27.392 42.752 10.24q24.576 0 43.52-8.192t34.56-18.176 28.928-18.176 27.136-8.192z" />
<glyph unicode="&#xd6;" glyph-name="uniD6" horiz-adv-x="824" d="M780.288 504.32q0-81.92-26.624-151.040t-75.008-119.040-116.224-78.080-150.784-28.16q-82.432 0-150.272 28.16t-116.48 78.080-75.264 119.040-26.624 151.040 26.624 151.040 75.264 119.296 116.48 78.336 150.272 28.16q82.944 0 150.784-28.16t116.224-78.336 75.008-119.296 26.624-151.040zM657.92 504.32q0 63.488-17.152 114.176t-49.152 86.016-77.568 54.272-102.4 18.944q-56.32 0-101.888-18.944t-77.824-54.272-49.664-86.016-17.408-114.176q0-64 17.408-114.688t49.664-85.76 77.824-53.76 101.888-18.688q56.832 0 102.4 18.688t77.568 53.76 49.152 85.76 17.152 114.688zM365.568 989.184q0-12.8-5.12-24.064t-13.824-19.712-20.48-13.312-24.576-4.864q-12.288 0-23.552 4.864t-19.712 13.312-13.312 19.712-4.864 24.064 4.864 24.32 13.312 20.224 19.712 13.824 23.552 5.12q12.8 0 24.576-5.12t20.48-13.824 13.824-20.224 5.12-24.32zM585.216 989.184q0-12.8-5.12-24.064t-13.568-19.712-19.712-13.312-24.064-4.864q-13.312 0-24.576 4.864t-19.968 13.312-13.568 19.712-4.864 24.064 4.864 24.32 13.568 20.224 19.968 13.824 24.576 5.12q12.8 0 24.064-5.12t19.712-13.824 13.568-20.224 5.12-24.32z" />
<glyph unicode="&#xd7;" glyph-name="uniD7" horiz-adv-x="594" d="M526.848 649.728l-170.496-170.496 177.152-177.152-58.368-58.88-177.664 177.152-178.176-178.176-58.368 58.88 178.176 178.176-171.52 171.52 58.368 58.88 171.52-172.032 170.496 171.008z" />
<glyph unicode="&#xd8;" glyph-name="uniD8" horiz-adv-x="824" d="M780.288 504.32q0-81.92-26.624-151.040t-75.008-119.040-116.224-78.080-150.784-28.16q-53.248 0-100.096 11.52t-86.784 33.536l-44.544-60.928q-13.312-17.92-31.232-25.344t-35.328-7.424h-47.616l98.816 135.68q-57.856 50.688-89.856 124.672t-32 164.608q0 81.92 26.624 151.040t75.264 119.296 116.48 78.336 150.272 28.16q57.856 0 108.288-13.824t92.416-39.936l35.84 49.152q6.144 8.192 11.008 13.824t10.24 9.216 12.288 5.376 16.64 1.792h61.44l-90.112-123.392q52.736-51.2 81.664-122.112t28.928-156.928zM164.864 504.32q0-64 16.896-113.92t49.152-85.248l317.952 435.712q-28.16 17.92-62.72 27.392t-74.496 9.472q-56.32 0-101.888-18.944t-77.824-54.272-49.664-86.016-17.408-114.176zM657.92 504.32q0 58.368-14.336 104.96t-40.96 81.92l-314.88-431.104q53.248-28.672 123.904-28.672 56.832 0 102.4 18.688t77.568 53.76 49.152 85.76 17.152 114.688z" />
<glyph unicode="&#xd9;" glyph-name="uniD9" horiz-adv-x="757" d="M378.368 232.448q42.496 0 76.032 14.336t56.832 39.936 35.584 61.696 12.288 80.128v444.416h119.296v-444.416q0-65.024-20.736-120.32t-59.648-95.488-94.464-62.976-125.184-22.784-125.184 22.784-94.464 62.976-59.648 95.488-20.736 120.32v444.416h119.808v-443.904q0-44.032 12.288-80.128t35.328-61.952 56.576-40.192 76.032-14.336zM291.84 1086.464q9.216 0 16.128-0.512t12.288-2.56 9.984-5.888 9.728-9.984l113.664-139.776h-79.36q-13.312 0-20.736 1.536t-16.128 9.728l-161.792 147.456h116.224z" />
<glyph unicode="&#xda;" glyph-name="uniDA" horiz-adv-x="757" d="M378.368 232.448q42.496 0 76.032 14.336t56.832 39.936 35.584 61.696 12.288 80.128v444.416h119.296v-444.416q0-65.024-20.736-120.32t-59.648-95.488-94.464-62.976-125.184-22.784-125.184 22.784-94.464 62.976-59.648 95.488-20.736 120.32v444.416h119.808v-443.904q0-44.032 12.288-80.128t35.328-61.952 56.576-40.192 76.032-14.336zM583.68 1086.464l-166.4-146.432q-9.216-8.192-17.408-10.24t-20.48-2.048h-79.36l112.64 139.776q4.608 6.656 9.216 10.24t10.24 5.632 12.544 2.56 16.128 0.512h122.88z" />
<glyph unicode="&#xdb;" glyph-name="uniDB" horiz-adv-x="757" d="M378.368 232.448q42.496 0 76.032 14.336t56.832 39.936 35.584 61.696 12.288 80.128v444.416h119.296v-444.416q0-65.024-20.736-120.32t-59.648-95.488-94.464-62.976-125.184-22.784-125.184 22.784-94.464 62.976-59.648 95.488-20.736 120.32v444.416h119.808v-443.904q0-44.032 12.288-80.128t35.328-61.952 56.576-40.192 76.032-14.336zM552.448 927.744h-79.872q-7.168 0-16.896 2.56t-19.968 15.36l-50.688 61.952q-2.048 2.56-3.584 4.864t-3.072 4.864q-1.536-2.56-3.072-4.864t-3.584-4.864l-50.688-61.952q-10.24-12.8-19.968-15.36t-16.896-2.56h-76.288l122.88 140.288h98.816z" />
<glyph unicode="&#xdc;" glyph-name="uniDC" horiz-adv-x="757" d="M378.368 232.448q42.496 0 76.032 14.336t56.832 39.936 35.584 61.696 12.288 80.128v444.416h119.296v-444.416q0-65.024-20.736-120.32t-59.648-95.488-94.464-62.976-125.184-22.784-125.184 22.784-94.464 62.976-59.648 95.488-20.736 120.32v444.416h119.808v-443.904q0-44.032 12.288-80.128t35.328-61.952 56.576-40.192 76.032-14.336zM331.264 989.184q0-12.8-5.12-24.064t-13.824-19.712-20.48-13.312-24.576-4.864q-12.288 0-23.552 4.864t-19.712 13.312-13.312 19.712-4.864 24.064 4.864 24.32 13.312 20.224 19.712 13.824 23.552 5.12q12.8 0 24.576-5.12t20.48-13.824 13.824-20.224 5.12-24.32zM550.912 989.184q0-12.8-5.12-24.064t-13.568-19.712-19.712-13.312-24.064-4.864q-13.312 0-24.576 4.864t-19.968 13.312-13.568 19.712-4.864 24.064 4.864 24.32 13.568 20.224 19.968 13.824 24.576 5.12q12.8 0 24.064-5.12t19.712-13.824 13.568-20.224 5.12-24.32z" />
<glyph unicode="&#xdd;" glyph-name="uniDD" horiz-adv-x="652" d="M385.536 424.448v-288.768h-119.296v288.768l-269.312 448.512h104.96q15.872 0 25.088-7.68t15.36-19.456l151.040-264.192q10.24-19.968 18.688-37.888t14.592-35.328q6.144 17.92 14.336 35.584t18.432 37.632l150.016 264.192q5.12 10.24 14.848 18.688t25.088 8.448h105.472zM531.968 1086.464l-166.4-146.432q-9.216-8.192-17.408-10.24t-20.48-2.048h-79.36l112.64 139.776q4.608 6.656 9.216 10.24t10.24 5.632 12.544 2.56 16.128 0.512h122.88z" />
<glyph unicode="&#xde;" glyph-name="uniDE" horiz-adv-x="622" d="M207.36 271.872v-136.192h-119.808v737.28h119.808v-130.56h109.568q72.192 0 125.184-16.896t87.552-47.616 51.456-73.472 16.896-94.464q0-52.224-17.92-96t-53.248-75.264-87.808-49.152-122.112-17.664h-109.568zM207.36 366.592h109.568q39.936 0 70.4 10.24t50.688 28.928 30.464 45.312 10.24 58.88q0 64.512-39.936 101.632t-121.856 37.12h-109.568v-282.112z" />
<glyph unicode="&#xdf;" glyph-name="uniDF" horiz-adv-x="606" d="M326.144 885.248q56.832 0 97.28-16.64t66.304-41.472 38.144-54.272 12.288-55.552q0-30.208-10.496-51.712t-26.112-37.632-34.048-28.672-34.048-23.808-26.112-23.552-10.496-27.648q0-18.432 13.056-31.232t33.024-24.32 42.752-24.32 42.752-31.488 33.024-45.312 13.056-66.048q0-41.984-15.36-74.24t-41.984-54.528-62.464-33.792-76.288-11.52q-48.128 0-90.368 18.176t-72.96 45.824l25.6 41.984q4.608 7.68 11.52 12.032t17.152 4.352q10.752 0 20.992-6.912t23.808-15.104 31.232-15.104 42.752-6.912q18.944 0 34.304 5.888t26.368 16.384 16.896 24.576 5.888 30.976q0 26.112-14.080 43.008t-35.072 29.696-45.568 24.32-45.568 27.136-35.072 37.888-14.080 56.576q0 28.16 11.008 48.896t27.648 36.864 36.096 29.696 36.096 27.904 27.648 31.232 11.008 39.936q0 16.896-6.144 32.512t-19.712 27.904-34.816 19.712-51.456 7.424q-68.096 0-106.496-42.24t-38.4-124.16v-502.272h-109.568v505.344q0 53.76 18.176 98.56t51.968 77.312 81.664 50.432 107.264 17.92z" />
<glyph unicode="&#xe0;" glyph-name="uniE0" horiz-adv-x="515" d="M403.968 135.68q-15.872 0-24.064 4.864t-13.824 19.712l-10.752 42.496q-19.968-18.432-39.424-32.256t-40.192-23.552-44.544-14.592-52.48-4.864q-31.744 0-59.136 8.704t-47.36 26.368-31.488 43.776-11.52 61.44q0 30.208 16.128 58.88t53.248 51.456 97.792 37.632 149.76 16.896v34.816q0 56.32-24.064 83.968t-70.656 27.648q-31.744 0-53.248-7.936t-37.376-17.152-28.16-17.152-26.112-7.936q-11.264 0-19.2 5.888t-13.056 14.592l-19.968 35.84q88.576 82.432 210.944 82.432 45.056 0 80.128-14.592t58.88-41.216 36.352-63.232 12.544-81.152v-331.776h-49.152zM211.968 204.288q43.008 0 73.984 16.128t60.16 46.336v97.28q-58.88-2.56-99.328-9.728t-65.536-18.944-36.096-27.392-11.008-34.56q0-18.432 5.888-31.488t16.384-21.504 24.576-12.288 30.976-3.84zM205.312 881.152q18.944 0 28.16-6.144t16.384-18.944l74.752-123.904h-62.464q-12.8 0-20.736 3.584t-16.128 12.8l-123.392 132.608h103.424z" />
<glyph unicode="&#xe1;" glyph-name="uniE1" horiz-adv-x="515" d="M403.968 135.68q-15.872 0-24.064 4.864t-13.824 19.712l-10.752 42.496q-19.968-18.432-39.424-32.256t-40.192-23.552-44.544-14.592-52.48-4.864q-31.744 0-59.136 8.704t-47.36 26.368-31.488 43.776-11.52 61.44q0 30.208 16.128 58.88t53.248 51.456 97.792 37.632 149.76 16.896v34.816q0 56.32-24.064 83.968t-70.656 27.648q-31.744 0-53.248-7.936t-37.376-17.152-28.16-17.152-26.112-7.936q-11.264 0-19.2 5.888t-13.056 14.592l-19.968 35.84q88.576 82.432 210.944 82.432 45.056 0 80.128-14.592t58.88-41.216 36.352-63.232 12.544-81.152v-331.776h-49.152zM211.968 204.288q43.008 0 73.984 16.128t60.16 46.336v97.28q-58.88-2.56-99.328-9.728t-65.536-18.944-36.096-27.392-11.008-34.56q0-18.432 5.888-31.488t16.384-21.504 24.576-12.288 30.976-3.84zM417.28 881.152l-123.392-132.608q-8.192-9.216-16.128-12.8t-20.736-3.584h-65.536l74.24 123.904q7.168 12.8 16.64 18.944t27.904 6.144h107.008z" />
<glyph unicode="&#xe2;" glyph-name="uniE2" horiz-adv-x="515" d="M403.968 135.68q-15.872 0-24.064 4.864t-13.824 19.712l-10.752 42.496q-19.968-18.432-39.424-32.256t-40.192-23.552-44.544-14.592-52.48-4.864q-31.744 0-59.136 8.704t-47.36 26.368-31.488 43.776-11.52 61.44q0 30.208 16.128 58.88t53.248 51.456 97.792 37.632 149.76 16.896v34.816q0 56.32-24.064 83.968t-70.656 27.648q-31.744 0-53.248-7.936t-37.376-17.152-28.16-17.152-26.112-7.936q-11.264 0-19.2 5.888t-13.056 14.592l-19.968 35.84q88.576 82.432 210.944 82.432 45.056 0 80.128-14.592t58.88-41.216 36.352-63.232 12.544-81.152v-331.776h-49.152zM211.968 204.288q43.008 0 73.984 16.128t60.16 46.336v97.28q-58.88-2.56-99.328-9.728t-65.536-18.944-36.096-27.392-11.008-34.56q0-18.432 5.888-31.488t16.384-21.504 24.576-12.288 30.976-3.84zM420.864 734.208h-73.728q-6.656 0-13.056 2.048t-13.056 9.216l-56.32 59.392q-2.56 2.56-4.864 5.12t-4.864 5.632q-4.608-6.144-9.216-10.752l-57.344-59.392q-5.632-5.632-12.288-8.448t-13.824-2.816h-76.288l116.224 138.752h102.4z" />
<glyph unicode="&#xe3;" glyph-name="uniE3" horiz-adv-x="515" d="M403.968 135.68q-15.872 0-24.064 4.864t-13.824 19.712l-10.752 42.496q-19.968-18.432-39.424-32.256t-40.192-23.552-44.544-14.592-52.48-4.864q-31.744 0-59.136 8.704t-47.36 26.368-31.488 43.776-11.52 61.44q0 30.208 16.128 58.88t53.248 51.456 97.792 37.632 149.76 16.896v34.816q0 56.32-24.064 83.968t-70.656 27.648q-31.744 0-53.248-7.936t-37.376-17.152-28.16-17.152-26.112-7.936q-11.264 0-19.2 5.888t-13.056 14.592l-19.968 35.84q88.576 82.432 210.944 82.432 45.056 0 80.128-14.592t58.88-41.216 36.352-63.232 12.544-81.152v-331.776h-49.152zM211.968 204.288q43.008 0 73.984 16.128t60.16 46.336v97.28q-58.88-2.56-99.328-9.728t-65.536-18.944-36.096-27.392-11.008-34.56q0-18.432 5.888-31.488t16.384-21.504 24.576-12.288 30.976-3.84zM309.248 823.808q16.384 0 25.6 9.472t9.728 31.488h67.072q0-26.624-7.168-48.384t-20.224-37.376-31.232-24.064-39.68-8.448q-17.92 0-33.792 6.912t-29.696 15.104-26.112 15.104-23.040 6.912q-16.384 0-25.6-9.984t-9.216-32h-68.096q0 26.624 7.424 48.64t20.48 37.632 31.232 24.32 39.68 8.704q18.432 0 34.304-6.912t29.696-15.104 25.856-15.104 22.784-6.912z" />
<glyph unicode="&#xe4;" glyph-name="uniE4" horiz-adv-x="515" d="M403.968 135.68q-15.872 0-24.064 4.864t-13.824 19.712l-10.752 42.496q-19.968-18.432-39.424-32.256t-40.192-23.552-44.544-14.592-52.48-4.864q-31.744 0-59.136 8.704t-47.36 26.368-31.488 43.776-11.52 61.44q0 30.208 16.128 58.88t53.248 51.456 97.792 37.632 149.76 16.896v34.816q0 56.32-24.064 83.968t-70.656 27.648q-31.744 0-53.248-7.936t-37.376-17.152-28.16-17.152-26.112-7.936q-11.264 0-19.2 5.888t-13.056 14.592l-19.968 35.84q88.576 82.432 210.944 82.432 45.056 0 80.128-14.592t58.88-41.216 36.352-63.232 12.544-81.152v-331.776h-49.152zM211.968 204.288q43.008 0 73.984 16.128t60.16 46.336v97.28q-58.88-2.56-99.328-9.728t-65.536-18.944-36.096-27.392-11.008-34.56q0-18.432 5.888-31.488t16.384-21.504 24.576-12.288 30.976-3.84zM217.088 796.672q0-13.312-5.12-24.832t-14.080-19.968-20.992-13.568-25.344-5.12q-12.8 0-24.32 5.12t-20.224 13.568-13.824 19.968-5.12 24.832 5.12 25.344 13.824 20.992 20.224 14.080 24.32 5.12q13.312 0 25.344-5.12t20.992-14.080 14.080-20.992 5.12-25.344zM418.816 796.672q0-13.312-5.12-24.832t-14.080-19.968-20.736-13.568-25.088-5.12-24.832 5.12-20.224 13.568-13.824 19.968-5.12 24.832 5.12 25.344 13.824 20.992 20.224 14.080 24.832 5.12 25.088-5.12 20.736-14.080 14.080-20.992 5.12-25.344z" />
<glyph unicode="&#xe5;" glyph-name="uniE5" horiz-adv-x="515" d="M403.968 135.68q-15.872 0-24.064 4.864t-13.824 19.712l-10.752 42.496q-19.968-18.432-39.424-32.256t-40.192-23.552-44.544-14.592-52.48-4.864q-31.744 0-59.136 8.704t-47.36 26.368-31.488 43.776-11.52 61.44q0 30.208 16.128 58.88t53.248 51.456 97.792 37.632 149.76 16.896v34.816q0 56.32-24.064 83.968t-70.656 27.648q-31.744 0-53.248-7.936t-37.376-17.152-28.16-17.152-26.112-7.936q-11.264 0-19.2 5.888t-13.056 14.592l-19.968 35.84q88.576 82.432 210.944 82.432 45.056 0 80.128-14.592t58.88-41.216 36.352-63.232 12.544-81.152v-331.776h-49.152zM211.968 204.288q43.008 0 73.984 16.128t60.16 46.336v97.28q-58.88-2.56-99.328-9.728t-65.536-18.944-36.096-27.392-11.008-34.56q0-18.432 5.888-31.488t16.384-21.504 24.576-12.288 30.976-3.84zM145.92 812.032q0 22.528 8.704 41.216t23.552 32 34.56 20.48 41.216 7.168q22.016 0 41.984-7.168t34.816-20.48 23.808-32 8.96-41.216-8.96-40.704-23.808-31.232-34.816-20.224-41.984-7.168q-21.504 0-41.216 7.168t-34.56 20.224-23.552 31.232-8.704 40.704zM206.336 812.032q0-21.504 12.8-34.816t35.84-13.312q21.504 0 34.816 13.312t13.312 34.816q0 22.016-13.312 35.328t-34.816 13.312q-23.040 0-35.84-13.312t-12.8-35.328z" />
<glyph unicode="&#xe6;" glyph-name="uniE6" horiz-adv-x="827" d="M585.216 666.112q43.52 0 80.896-16.896t65.024-48.64 43.264-77.056 15.616-102.656q0-25.6-5.12-34.304t-19.968-8.704h-313.856q3.072-41.472 14.080-72.192t29.44-50.944 43.52-30.208 55.296-9.984q35.328 0 57.856 6.912t37.632 15.36 24.832 15.616 18.944 7.168q16.384 0 22.528-10.24l29.696-37.888q-18.944-23.040-43.008-38.912t-50.432-25.856-54.016-14.336-54.272-4.352q-57.856 0-106.24 26.88t-78.592 82.688q-14.848-29.184-37.12-50.176t-49.408-34.304-57.6-19.456-61.184-6.144q-36.864 0-66.816 9.216t-51.456 27.648-33.024 46.080-11.52 64q0 30.208 16.128 59.904t53.248 53.76 97.792 39.936 149.76 17.92v21.504q0 56.32-24.064 85.76t-70.656 29.44q-31.744 0-53.248-8.448t-37.376-18.432-28.16-18.432-26.112-8.448q-11.264 0-19.2 5.888t-13.056 14.592l-19.968 35.84q44.032 40.96 92.16 61.696t107.008 20.736q60.416 0 98.048-24.32t56.064-66.816q28.672 41.472 72.704 65.536t103.936 24.064zM347.136 377.856q-58.88-2.56-99.328-11.008t-65.28-21.504-35.84-29.696-11.008-35.584q0-39.424 22.528-57.6t60.416-18.176q27.136 0 50.688 8.448t40.704 25.856 27.136 44.032 9.984 62.976v32.256zM581.12 586.24q-57.856 0-90.112-37.12t-39.424-103.68h240.64q0 29.184-7.168 54.784t-21.248 44.8-34.816 30.208-47.872 11.008z" />
<glyph unicode="&#xe7;" glyph-name="uniE7" horiz-adv-x="492" d="M215.552 11.776q3.072 0 6.912-1.536t9.216-3.328 12.288-3.328 16.64-1.536q18.944 0 28.416 7.424t9.472 18.176q0 17.408-19.712 24.32t-58.624 12.544l21.504 65.024q-43.52 5.12-80.64 25.344t-64.512 54.272-42.752 81.408-15.36 106.752q0 57.856 16.384 107.264t47.872 85.248 78.080 56.064 107.52 20.224q56.832 0 100.096-18.432t77.056-52.224l-29.184-39.936q-5.12-6.656-9.728-10.24t-13.312-3.584-18.176 6.144-22.528 13.568-31.488 13.568-46.080 6.144q-35.84 0-62.72-12.8t-45.056-36.608-27.136-57.856-8.96-76.544q0-44.032 9.728-78.336t27.904-57.856 44.032-35.84 58.112-12.288q31.744 0 51.712 7.68t33.28 16.896 22.784 16.896 20.224 7.68q13.312 0 20.48-10.24l31.232-40.448q-32.256-38.912-75.264-58.112t-90.624-23.808l-7.68-28.16q47.616-10.24 67.84-29.184t20.224-46.080q0-16.896-8.704-30.464t-24.32-23.040-37.376-14.592-47.872-5.12q-20.992 0-39.68 3.584t-35.072 10.24l10.24 34.304q3.072 10.752 13.312 10.752z" />
<glyph unicode="&#xe8;" glyph-name="uniE8" horiz-adv-x="544" d="M285.696 666.112q48.128 0 89.088-15.616t70.656-45.824 46.336-73.984 16.64-99.584q0-25.6-5.632-34.304t-20.48-8.704h-335.36q2.048-44.544 13.824-77.056t31.488-54.016 47.104-32 61.184-10.496q32.256 0 55.808 7.424t40.96 16.384 29.696 16.384 22.528 7.424q13.312 0 20.48-10.24l31.232-40.448q-19.456-23.040-44.032-38.912t-52.224-25.856-56.832-14.336-56.832-4.352q-54.272 0-100.608 18.176t-80.384 53.504-53.248 87.552-19.2 120.32q0 54.272 17.152 101.376t49.152 81.92 77.824 55.040 103.68 20.224zM287.744 586.24q-59.904 0-94.208-34.304t-43.52-96.256h259.584q0 27.648-7.936 51.456t-23.296 41.472-38.144 27.648-52.48 9.984zM240.128 881.152q18.944 0 28.16-6.144t16.384-18.944l74.752-123.904h-62.464q-12.8 0-20.736 3.584t-16.128 12.8l-123.392 132.608h103.424z" />
<glyph unicode="&#xe9;" glyph-name="uniE9" horiz-adv-x="544" d="M285.696 666.112q48.128 0 89.088-15.616t70.656-45.824 46.336-73.984 16.64-99.584q0-25.6-5.632-34.304t-20.48-8.704h-335.36q2.048-44.544 13.824-77.056t31.488-54.016 47.104-32 61.184-10.496q32.256 0 55.808 7.424t40.96 16.384 29.696 16.384 22.528 7.424q13.312 0 20.48-10.24l31.232-40.448q-19.456-23.040-44.032-38.912t-52.224-25.856-56.832-14.336-56.832-4.352q-54.272 0-100.608 18.176t-80.384 53.504-53.248 87.552-19.2 120.32q0 54.272 17.152 101.376t49.152 81.92 77.824 55.040 103.68 20.224zM287.744 586.24q-59.904 0-94.208-34.304t-43.52-96.256h259.584q0 27.648-7.936 51.456t-23.296 41.472-38.144 27.648-52.48 9.984zM452.096 881.152l-123.392-132.608q-8.192-9.216-16.128-12.8t-20.736-3.584h-65.536l74.24 123.904q7.168 12.8 16.64 18.944t27.904 6.144h107.008z" />
<glyph unicode="&#xea;" glyph-name="uniEA" horiz-adv-x="544" d="M285.696 666.112q48.128 0 89.088-15.616t70.656-45.824 46.336-73.984 16.64-99.584q0-25.6-5.632-34.304t-20.48-8.704h-335.36q2.048-44.544 13.824-77.056t31.488-54.016 47.104-32 61.184-10.496q32.256 0 55.808 7.424t40.96 16.384 29.696 16.384 22.528 7.424q13.312 0 20.48-10.24l31.232-40.448q-19.456-23.040-44.032-38.912t-52.224-25.856-56.832-14.336-56.832-4.352q-54.272 0-100.608 18.176t-80.384 53.504-53.248 87.552-19.2 120.32q0 54.272 17.152 101.376t49.152 81.92 77.824 55.040 103.68 20.224zM287.744 586.24q-59.904 0-94.208-34.304t-43.52-96.256h259.584q0 27.648-7.936 51.456t-23.296 41.472-38.144 27.648-52.48 9.984zM455.68 734.208h-73.728q-6.656 0-13.056 2.048t-13.056 9.216l-56.32 59.392q-2.56 2.56-4.864 5.12t-4.864 5.632q-4.608-6.144-9.216-10.752l-57.344-59.392q-5.632-5.632-12.288-8.448t-13.824-2.816h-76.288l116.224 138.752h102.4z" />
<glyph unicode="&#xeb;" glyph-name="uniEB" horiz-adv-x="544" d="M285.696 666.112q48.128 0 89.088-15.616t70.656-45.824 46.336-73.984 16.64-99.584q0-25.6-5.632-34.304t-20.48-8.704h-335.36q2.048-44.544 13.824-77.056t31.488-54.016 47.104-32 61.184-10.496q32.256 0 55.808 7.424t40.96 16.384 29.696 16.384 22.528 7.424q13.312 0 20.48-10.24l31.232-40.448q-19.456-23.040-44.032-38.912t-52.224-25.856-56.832-14.336-56.832-4.352q-54.272 0-100.608 18.176t-80.384 53.504-53.248 87.552-19.2 120.32q0 54.272 17.152 101.376t49.152 81.92 77.824 55.040 103.68 20.224zM287.744 586.24q-59.904 0-94.208-34.304t-43.52-96.256h259.584q0 27.648-7.936 51.456t-23.296 41.472-38.144 27.648-52.48 9.984zM251.904 796.672q0-13.312-5.12-24.832t-14.080-19.968-20.992-13.568-25.344-5.12q-12.8 0-24.32 5.12t-20.224 13.568-13.824 19.968-5.12 24.832 5.12 25.344 13.824 20.992 20.224 14.080 24.32 5.12q13.312 0 25.344-5.12t20.992-14.080 14.080-20.992 5.12-25.344zM453.632 796.672q0-13.312-5.12-24.832t-14.080-19.968-20.736-13.568-25.088-5.12-24.832 5.12-20.224 13.568-13.824 19.968-5.12 24.832 5.12 25.344 13.824 20.992 20.224 14.080 24.832 5.12 25.088-5.12 20.736-14.080 14.080-20.992 5.12-25.344z" />
<glyph unicode="&#xec;" glyph-name="uniEC" horiz-adv-x="253" d="M181.248 657.92v-522.24h-109.568v522.24h109.568zM81.408 881.152q18.944 0 28.16-6.144t16.384-18.944l74.752-123.904h-62.464q-12.8 0-20.736 3.584t-16.128 12.8l-123.392 132.608h103.424z" />
<glyph unicode="&#xed;" glyph-name="uniED" horiz-adv-x="253" d="M181.76 657.92v-522.24h-109.568v522.24h109.568zM293.888 881.152l-123.392-132.608q-8.192-9.216-16.128-12.8t-20.736-3.584h-65.536l74.24 123.904q7.168 12.8 16.64 18.944t27.904 6.144h107.008z" />
<glyph unicode="&#xee;" glyph-name="uniEE" horiz-adv-x="253" d="M181.248 657.92v-522.24h-109.568v522.24h109.568zM296.96 734.208h-73.728q-6.656 0-13.056 2.048t-13.056 9.216l-56.32 59.392q-2.56 2.56-4.864 5.12t-4.864 5.632q-4.608-6.144-9.216-10.752l-57.344-59.392q-5.632-5.632-12.288-8.448t-13.824-2.816h-76.288l116.224 138.752h102.4z" />
<glyph unicode="&#xef;" glyph-name="uniEF" horiz-adv-x="253" d="M181.248 657.92v-522.24h-109.568v522.24h109.568zM110.592 796.672q0-13.312-5.376-24.832t-14.336-19.968-20.736-13.568-25.088-5.12q-12.8 0-24.32 5.12t-20.224 13.568-13.824 19.968-5.12 24.832 5.12 25.344 13.824 20.992 20.224 14.080 24.32 5.12q13.312 0 25.088-5.12t20.736-14.080 14.336-20.992 5.376-25.344zM277.504 796.672q0-13.312-5.12-24.832t-13.824-19.968-20.48-13.568-25.088-5.12-25.088 5.12-20.48 13.568-13.824 19.968-5.12 24.832 5.12 25.344 13.824 20.992 20.48 14.080 25.088 5.12 25.088-5.12 20.48-14.080 13.824-20.992 5.12-25.344z" />
<glyph unicode="&#xf0;" glyph-name="uniF0" horiz-adv-x="582" d="M206.336 679.936q-7.168 10.752-4.608 20.736t13.824 16.64l44.544 28.16q-19.456 8.192-40.96 15.36t-46.080 13.312q-7.168 2.048-13.056 6.4t-9.472 10.752-3.84 15.36 3.84 19.712l12.8 38.4q50.176-8.192 97.536-24.064t89.344-40.448l87.552 59.904 21.504-35.328q6.144-10.24 3.84-19.968t-12.544-15.872l-44.544-28.16q29.696-25.6 54.272-57.6t41.728-71.168 26.624-85.504 9.472-100.608q0-74.24-16.64-133.12t-49.152-99.84-80.384-62.72-110.848-21.76q-51.712 0-96 16.896t-77.312 48.896-51.712 77.824-18.688 104.192q0 47.616 16.128 90.112t46.336 74.752 72.96 51.2 96 18.944q50.176 0 92.672-19.712t74.752-58.112q-10.752 60.928-38.144 104.448t-73.984 74.24l-97.28-67.072zM284.16 213.504q32.768 0 59.648 12.032t46.336 37.888 30.976 65.792 13.056 95.232q-8.192 20.48-20.736 38.912t-30.208 32.512-40.704 22.272-52.224 8.192q-35.328 0-62.208-11.776t-45.056-32-27.392-47.872-9.216-58.88q0-39.424 10.752-69.632t29.696-50.944 43.776-31.232 53.504-10.496z" />
</font>
</defs>
</svg>
